<svg xmlns="http://www.w3.org/2000/svg" xmlns:xlink="http://www.w3.org/1999/xlink" contentStyleType="text/css" height="397px" preserveAspectRatio="none" style="width:589px;height:397px;background:#FFFFFF;" version="1.1" viewBox="0 0 589 397" width="589px" zoomAndPan="magnify"><defs/><g><rect fill="#FFFFFF" height="29.1328" style="stroke:#181818;stroke-width:1.0;" width="10" x="50.8413" y="143.8594"/><rect fill="#FFFFFF" height="58.2656" style="stroke:#181818;stroke-width:1.0;" width="10" x="333.311" y="202.125"/><line style="stroke:#181818;stroke-width:0.5;stroke-dasharray:5.0,5.0;" x1="55" x2="55" y1="83.5938" y2="303.3906"/><line style="stroke:#181818;stroke-width:0.5;stroke-dasharray:5.0,5.0;" x1="196.604" x2="196.604" y1="83.5938" y2="303.3906"/><line style="stroke:#181818;stroke-width:0.5;stroke-dasharray:5.0,5.0;" x1="337.8389" x2="337.8389" y1="83.5938" y2="303.3906"/><line style="stroke:#181818;stroke-width:0.5;stroke-dasharray:5.0,5.0;" x1="492.7832" x2="492.7832" y1="83.5938" y2="303.3906"/><text fill="#000000" font-family="sans-serif" font-size="14" lengthAdjust="spacing" textLength="95.6826" x="5" y="80.292">Administrator</text><ellipse cx="55.8413" cy="15.7969" fill="#E2E2F0" rx="8" ry="8" style="stroke:#181818;stroke-width:0.5;"/><path d="M55.8413,23.7969 L55.8413,50.7969 M42.8413,31.7969 L68.8413,31.7969 M55.8413,50.7969 L42.8413,65.7969 M55.8413,50.7969 L68.8413,65.7969 " fill="none" style="stroke:#181818;stroke-width:0.5;"/><text fill="#000000" font-family="sans-serif" font-size="14" lengthAdjust="spacing" textLength="95.6826" x="5" y="315.3857">Administrator</text><ellipse cx="55.8413" cy="327.1875" fill="#E2E2F0" rx="8" ry="8" style="stroke:#181818;stroke-width:0.5;"/><path d="M55.8413,335.1875 L55.8413,362.1875 M42.8413,343.1875 L68.8413,343.1875 M55.8413,362.1875 L42.8413,377.1875 M55.8413,362.1875 L68.8413,377.1875 " fill="none" style="stroke:#181818;stroke-width:0.5;"/><text fill="#000000" font-family="sans-serif" font-size="14" lengthAdjust="spacing" textLength="94.9443" x="146.604" y="63.9951">Configuration</text><text fill="#000000" font-family="sans-serif" font-size="14" lengthAdjust="spacing" textLength="53.1836" x="167.4844" y="80.292">storage</text><path d="M179.0762,15 C179.0762,5 197.0762,5 197.0762,5 C197.0762,5 215.0762,5 215.0762,15 L215.0762,41 C215.0762,51 197.0762,51 197.0762,51 C197.0762,51 179.0762,51 179.0762,41 L179.0762,15 " fill="#E2E2F0" style="stroke:#181818;stroke-width:1.5;"/><path d="M179.0762,15 C179.0762,25 197.0762,25 197.0762,25 C197.0762,25 215.0762,25 215.0762,15 " fill="none" style="stroke:#181818;stroke-width:1.5;"/><text fill="#000000" font-family="sans-serif" font-size="14" lengthAdjust="spacing" textLength="94.9443" x="146.604" y="315.3857">Configuration</text><text fill="#000000" font-family="sans-serif" font-size="14" lengthAdjust="spacing" textLength="53.1836" x="167.4844" y="331.6826">storage</text><path d="M179.0762,344.9844 C179.0762,334.9844 197.0762,334.9844 197.0762,334.9844 C197.0762,334.9844 215.0762,334.9844 215.0762,344.9844 L215.0762,370.9844 C215.0762,380.9844 197.0762,380.9844 197.0762,380.9844 C197.0762,380.9844 179.0762,380.9844 179.0762,370.9844 L179.0762,344.9844 " fill="#E2E2F0" style="stroke:#181818;stroke-width:1.5;"/><path d="M179.0762,344.9844 C179.0762,354.9844 197.0762,354.9844 197.0762,354.9844 C197.0762,354.9844 215.0762,354.9844 215.0762,344.9844 " fill="none" style="stroke:#181818;stroke-width:1.5;"/><rect fill="#E2E2F0" height="46.5938" rx="2.5" ry="2.5" style="stroke:#181818;stroke-width:0.5;" width="108.9443" x="283.8389" y="36"/><text fill="#000000" font-family="sans-serif" font-size="14" lengthAdjust="spacing" textLength="94.9443" x="290.8389" y="55.9951">Configuration</text><text fill="#000000" font-family="sans-serif" font-size="14" lengthAdjust="spacing" textLength="50.1484" x="313.2368" y="72.292">service</text><rect fill="#E2E2F0" height="46.5938" rx="2.5" ry="2.5" style="stroke:#181818;stroke-width:0.5;" width="108.9443" x="283.8389" y="302.3906"/><text fill="#000000" font-family="sans-serif" font-size="14" lengthAdjust="spacing" textLength="94.9443" x="290.8389" y="322.3857">Configuration</text><text fill="#000000" font-family="sans-serif" font-size="14" lengthAdjust="spacing" textLength="50.1484" x="313.2368" y="338.6826">service</text><rect fill="#E2E2F0" height="46.5938" rx="2.5" ry="2.5" style="stroke:#181818;stroke-width:0.5;" width="180.7559" x="402.7832" y="36"/><text fill="#000000" font-family="sans-serif" font-size="14" lengthAdjust="spacing" textLength="81.833" x="452.2446" y="55.9951">Subscribers</text><text fill="#000000" font-family="sans-serif" font-size="14" lengthAdjust="spacing" textLength="166.7559" x="409.7832" y="72.292">(producers, consumers)</text><rect fill="#E2E2F0" height="46.5938" rx="2.5" ry="2.5" style="stroke:#181818;stroke-width:0.5;" width="180.7559" x="402.7832" y="302.3906"/><text fill="#000000" font-family="sans-serif" font-size="14" lengthAdjust="spacing" textLength="81.833" x="452.2446" y="322.3857">Subscribers</text><text fill="#000000" font-family="sans-serif" font-size="14" lengthAdjust="spacing" textLength="166.7559" x="409.7832" y="338.6826">(producers, consumers)</text><rect fill="#FFFFFF" height="29.1328" style="stroke:#181818;stroke-width:1.0;" width="10" x="50.8413" y="143.8594"/><rect fill="#FFFFFF" height="58.2656" style="stroke:#181818;stroke-width:1.0;" width="10" x="333.311" y="202.125"/><line style="stroke:#181818;stroke-width:1.0;" x1="198.0762" x2="208.0762" y1="114.7266" y2="110.7266"/><line style="stroke:#181818;stroke-width:1.0;" x1="198.0762" x2="208.0762" y1="114.7266" y2="118.7266"/><line style="stroke:#181818;stroke-width:1.0;" x1="197.0762" x2="337.311" y1="114.7266" y2="114.7266"/><text fill="#000000" font-family="sans-serif" font-size="13" lengthAdjust="spacing" textLength="35.3311" x="214.0762" y="109.6606">listen</text><polygon fill="#181818" points="185.0762,139.8594,195.0762,143.8594,185.0762,147.8594,189.0762,143.8594" style="stroke:#181818;stroke-width:1.0;"/><line style="stroke:#181818;stroke-width:1.0;" x1="60.8413" x2="191.0762" y1="143.8594" y2="143.8594"/><text fill="#000000" font-family="sans-serif" font-size="13" lengthAdjust="spacing" textLength="117.2349" x="67.8413" y="138.7935">new configuration</text><polygon fill="#181818" points="66.8413,168.9922,56.8413,172.9922,66.8413,176.9922,62.8413,172.9922" style="stroke:#181818;stroke-width:1.0;"/><line style="stroke:#181818;stroke-width:1.0;stroke-dasharray:2.0,2.0;" x1="60.8413" x2="196.0762" y1="172.9922" y2="172.9922"/><text fill="#000000" font-family="sans-serif" font-size="13" lengthAdjust="spacing" textLength="82.4053" x="72.8413" y="167.9263">confirmation</text><polygon fill="#181818" points="321.311,198.125,331.311,202.125,321.311,206.125,325.311,202.125" style="stroke:#181818;stroke-width:1.0;"/><line style="stroke:#181818;stroke-width:1.0;stroke-dasharray:2.0,2.0;" x1="197.0762" x2="327.311" y1="202.125" y2="202.125"/><text fill="#000000" font-family="sans-serif" font-size="13" lengthAdjust="spacing" textLength="117.2349" x="204.0762" y="197.0591">new configuration</text><line style="stroke:#181818;stroke-width:1.0;" x1="491.1611" x2="481.1611" y1="231.2578" y2="227.2578"/><line style="stroke:#181818;stroke-width:1.0;" x1="491.1611" x2="481.1611" y1="231.2578" y2="235.2578"/><line style="stroke:#181818;stroke-width:1.0;" x1="343.311" x2="492.1611" y1="231.2578" y2="231.2578"/><text fill="#000000" font-family="sans-serif" font-size="13" lengthAdjust="spacing" textLength="117.2349" x="350.311" y="226.1919">new configuration</text><line style="stroke:#181818;stroke-width:1.0;" x1="198.0762" x2="208.0762" y1="260.3906" y2="256.3906"/><line style="stroke:#181818;stroke-width:1.0;" x1="198.0762" x2="208.0762" y1="260.3906" y2="264.3906"/><line style="stroke:#181818;stroke-width:1.0;" x1="197.0762" x2="337.311" y1="260.3906" y2="260.3906"/><text fill="#000000" font-family="sans-serif" font-size="13" lengthAdjust="spacing" textLength="35.3311" x="214.0762" y="255.3247">listen</text><!--SRC=[fP7FRi8m3CRlVeg8qoRH0zjE790GZy2LYvkOpe8wbPt2fG-_LEnVjGNGTdFapxzy_cm7bWuLMsUl6EAPfN5xF1e1e4zHtJgqB6n9SNn53QHk0G4JrcZaPfieUsxwtEOeEx6imePcxyedoF34dZkKz5DCUcB_ANwUYhTzRLwv9hMTF7GQG-zpFNS-YlLjBXy_9by0e0YlLgkYpQKxvjr8OBfcTMr2w3nQ-6gEIV494qt3Wc8sLUPFfCiBKDiBBz1VYAK0hZek3Ts8yvxR_FRl_uxqBPUYxs4OtW00]--></g></svg>