<svg xmlns="http://www.w3.org/2000/svg" xmlns:xlink="http://www.w3.org/1999/xlink" contentStyleType="text/css" height="375px" preserveAspectRatio="none" style="width:482px;height:375px;background:#FFFFFF;" version="1.1" viewBox="0 0 482 375" width="482px" zoomAndPan="magnify"><defs/><g><rect fill="none" height="195.9297" style="stroke:#000000;stroke-width:1.5;" width="465.9053" x="10" y="84.2969"/><rect fill="none" height="104.5313" style="stroke:#000000;stroke-width:1.5;" width="353.6816" x="112.2236" y="168.6953"/><line style="stroke:#181818;stroke-width:0.5;stroke-dasharray:5.0,5.0;" x1="66" x2="66" y1="67.2969" y2="297.2266"/><line style="stroke:#181818;stroke-width:0.5;stroke-dasharray:5.0,5.0;" x1="170.2236" x2="170.2236" y1="67.2969" y2="297.2266"/><line style="stroke:#181818;stroke-width:0.5;stroke-dasharray:5.0,5.0;" x1="281.5591" x2="281.5591" y1="67.2969" y2="297.2266"/><line style="stroke:#181818;stroke-width:0.5;stroke-dasharray:5.0,5.0;" x1="407.3955" x2="407.3955" y1="67.2969" y2="297.2266"/><rect fill="#E2E2F0" height="30.2969" rx="2.5" ry="2.5" style="stroke:#181818;stroke-width:0.5;" width="92.2236" x="20" y="36"/><text fill="#000000" font-family="sans-serif" font-size="14" lengthAdjust="spacing" textLength="78.2236" x="27" y="55.9951">Application</text><rect fill="#E2E2F0" height="30.2969" rx="2.5" ry="2.5" style="stroke:#181818;stroke-width:0.5;" width="92.2236" x="20" y="296.2266"/><text fill="#000000" font-family="sans-serif" font-size="14" lengthAdjust="spacing" textLength="78.2236" x="27" y="316.2217">Application</text><rect fill="#E2E2F0" height="30.2969" rx="2.5" ry="2.5" style="stroke:#181818;stroke-width:0.5;" width="96.4414" x="122.2236" y="36"/><text fill="#000000" font-family="sans-serif" font-size="14" lengthAdjust="spacing" textLength="82.4414" x="129.2236" y="55.9951">Local cache</text><rect fill="#E2E2F0" height="30.2969" rx="2.5" ry="2.5" style="stroke:#181818;stroke-width:0.5;" width="96.4414" x="122.2236" y="296.2266"/><text fill="#000000" font-family="sans-serif" font-size="14" lengthAdjust="spacing" textLength="82.4414" x="129.2236" y="316.2217">Local cache</text><rect fill="#E2E2F0" height="46.5938" rx="2.5" ry="2.5" style="stroke:#181818;stroke-width:0.5;" width="97.8291" x="233.5591" y="19.7031"/><text fill="#000000" font-family="sans-serif" font-size="14" lengthAdjust="spacing" textLength="83.8291" x="240.5591" y="39.6982">Background</text><text fill="#000000" font-family="sans-serif" font-size="14" lengthAdjust="spacing" textLength="69.3096" x="247.8188" y="55.9951">consumer</text><rect fill="#E2E2F0" height="46.5938" rx="2.5" ry="2.5" style="stroke:#181818;stroke-width:0.5;" width="97.8291" x="233.5591" y="296.2266"/><text fill="#000000" font-family="sans-serif" font-size="14" lengthAdjust="spacing" textLength="83.8291" x="240.5591" y="316.2217">Background</text><text fill="#000000" font-family="sans-serif" font-size="14" lengthAdjust="spacing" textLength="69.3096" x="247.8188" y="332.5186">consumer</text><text fill="#000000" font-family="sans-serif" font-size="14" lengthAdjust="spacing" textLength="89.5098" x="360.3955" y="63.9951">Kafka broker</text><path d="M390.1504,15 C390.1504,5 408.1504,5 408.1504,5 C408.1504,5 426.1504,5 426.1504,15 L426.1504,41 C426.1504,51 408.1504,51 408.1504,51 C408.1504,51 390.1504,51 390.1504,41 L390.1504,15 " fill="#E2E2F0" style="stroke:#181818;stroke-width:1.5;"/><path d="M390.1504,15 C390.1504,25 408.1504,25 408.1504,25 C408.1504,25 426.1504,25 426.1504,15 " fill="none" style="stroke:#181818;stroke-width:1.5;"/><text fill="#000000" font-family="sans-serif" font-size="14" lengthAdjust="spacing" textLength="89.5098" x="360.3955" y="309.2217">Kafka broker</text><path d="M390.1504,322.5234 C390.1504,312.5234 408.1504,312.5234 408.1504,312.5234 C408.1504,312.5234 426.1504,312.5234 426.1504,322.5234 L426.1504,348.5234 C426.1504,358.5234 408.1504,358.5234 408.1504,358.5234 C408.1504,358.5234 390.1504,358.5234 390.1504,348.5234 L390.1504,322.5234 " fill="#E2E2F0" style="stroke:#181818;stroke-width:1.5;"/><path d="M390.1504,322.5234 C390.1504,332.5234 408.1504,332.5234 408.1504,332.5234 C408.1504,332.5234 426.1504,332.5234 426.1504,322.5234 " fill="none" style="stroke:#181818;stroke-width:1.5;"/><path d="M10,84.2969 L79.4893,84.2969 L79.4893,91.4297 L69.4893,101.4297 L10,101.4297 L10,84.2969 " fill="#EEEEEE" style="stroke:#000000;stroke-width:1.5;"/><rect fill="none" height="195.9297" style="stroke:#000000;stroke-width:1.5;" width="465.9053" x="10" y="84.2969"/><text fill="#000000" font-family="sans-serif" font-size="13" font-weight="bold" lengthAdjust="spacing" textLength="24.4893" x="25" y="97.3638">par</text><polygon fill="#181818" points="158.4443,118.5625,168.4443,122.5625,158.4443,126.5625,162.4443,122.5625" style="stroke:#181818;stroke-width:1.0;"/><line style="stroke:#181818;stroke-width:1.0;" x1="66.1118" x2="164.4443" y1="122.5625" y2="122.5625"/><text fill="#000000" font-family="sans-serif" font-size="13" lengthAdjust="spacing" textLength="23.2197" x="73.1118" y="117.4966">key</text><polygon fill="#181818" points="77.1118,147.6953,67.1118,151.6953,77.1118,155.6953,73.1118,151.6953" style="stroke:#181818;stroke-width:1.0;"/><line style="stroke:#181818;stroke-width:1.0;stroke-dasharray:2.0,2.0;" x1="71.1118" x2="169.4443" y1="151.6953" y2="151.6953"/><text fill="#000000" font-family="sans-serif" font-size="13" lengthAdjust="spacing" textLength="35.5088" x="83.1118" y="146.6294">value</text><line style="stroke:#000000;stroke-width:1.0;stroke-dasharray:2.0,2.0;" x1="10" x2="475.9053" y1="160.6953" y2="160.6953"/><path d="M112.2236,168.6953 L188.8477,168.6953 L188.8477,175.8281 L178.8477,185.8281 L112.2236,185.8281 L112.2236,168.6953 " fill="#EEEEEE" style="stroke:#000000;stroke-width:1.5;"/><rect fill="none" height="104.5313" style="stroke:#000000;stroke-width:1.5;" width="353.6816" x="112.2236" y="168.6953"/><text fill="#000000" font-family="sans-serif" font-size="13" font-weight="bold" lengthAdjust="spacing" textLength="31.624" x="127.2236" y="181.7622">loop</text><line style="stroke:#181818;stroke-width:1.0;" x1="406.1504" x2="396.1504" y1="206.9609" y2="202.9609"/><line style="stroke:#181818;stroke-width:1.0;" x1="406.1504" x2="396.1504" y1="206.9609" y2="210.9609"/><line style="stroke:#181818;stroke-width:1.0;" x1="282.4736" x2="407.1504" y1="206.9609" y2="206.9609"/><text fill="#000000" font-family="sans-serif" font-size="13" lengthAdjust="spacing" textLength="101.6768" x="289.4736" y="201.895">change request</text><polygon fill="#181818" points="293.4736,232.0938,283.4736,236.0938,293.4736,240.0938,289.4736,236.0938" style="stroke:#181818;stroke-width:1.0;"/><line style="stroke:#181818;stroke-width:1.0;stroke-dasharray:2.0,2.0;" x1="287.4736" x2="407.1504" y1="236.0938" y2="236.0938"/><text fill="#000000" font-family="sans-serif" font-size="13" lengthAdjust="spacing" textLength="88.0293" x="299.4736" y="231.0278">data changes</text><polygon fill="#181818" points="181.4443,261.2266,171.4443,265.2266,181.4443,269.2266,177.4443,265.2266" style="stroke:#181818;stroke-width:1.0;"/><line style="stroke:#181818;stroke-width:1.0;" x1="175.4443" x2="281.4736" y1="265.2266" y2="265.2266"/><text fill="#000000" font-family="sans-serif" font-size="13" lengthAdjust="spacing" textLength="88.0293" x="187.4443" y="260.1606">data changes</text><!--SRC=[VO-x3i8m34NtVCLLzagmTgW4Atm2Yvku3oMDIzA0-7iQYO5MYC6BvNEFRt9Zc2dIX3IGbUSOUdJa4okbB2tKKcBe2tMEq4Pn73KaMeuu7fHQINMQPpyQMaO9g1hegnZoC6G6rZKSlzHcXMez-c9gFCZdLST5waLc1UWp6TT7oS7UWf6GybJ4LTFiVgbX1Wez8_8zSreAktssw7x7rIW5Fm7fdtLVQiDni6NU]--></g></svg>