<svg xmlns="http://www.w3.org/2000/svg" xmlns:xlink="http://www.w3.org/1999/xlink" contentStyleType="text/css" height="689px" preserveAspectRatio="none" style="width:878px;height:689px;background:#FFFFFF;" version="1.1" viewBox="0 0 878 689" width="878px" zoomAndPan="magnify"><defs/><g><rect fill="#FFFFFF" height="87.3984" style="stroke:#181818;stroke-width:1.0;" width="10" x="206.7681" y="139.7266"/><rect fill="#FFFFFF" height="87.3984" style="stroke:#181818;stroke-width:1.0;" width="10" x="206.7681" y="505.4844"/><rect fill="#FFFFFF" height="87.3984" style="stroke:#181818;stroke-width:1.0;" width="10" x="657.0693" y="292.5547"/><rect fill="#FFFFFF" height="29.1328" style="stroke:#181818;stroke-width:1.0;" width="10" x="657.0693" y="433.2188"/><rect fill="none" height="223.0625" style="stroke:#000000;stroke-width:1.5;" width="555.752" x="317.0518" y="254.2891"/><rect fill="none" height="75.3984" style="stroke:#000000;stroke-width:1.5;" width="438.3145" x="327.0518" y="394.9531"/><line style="stroke:#181818;stroke-width:0.5;stroke-dasharray:5.0,5.0;" x1="51" x2="51" y1="67.2969" y2="610.8828"/><line style="stroke:#181818;stroke-width:0.5;stroke-dasharray:5.0,5.0;" x1="211.1738" x2="211.1738" y1="107.9453" y2="610.8828"/><line style="stroke:#181818;stroke-width:0.5;stroke-dasharray:5.0,5.0;" x1="387.0518" x2="387.0518" y1="67.2969" y2="610.8828"/><line style="stroke:#181818;stroke-width:0.5;stroke-dasharray:5.0,5.0;" x1="502.2168" x2="502.2168" y1="67.2969" y2="610.8828"/><line style="stroke:#181818;stroke-width:0.5;stroke-dasharray:5.0,5.0;" x1="661.7725" x2="661.7725" y1="236.6406" y2="610.8828"/><line style="stroke:#181818;stroke-width:0.5;stroke-dasharray:5.0,5.0;" x1="813.3662" x2="813.3662" y1="67.2969" y2="610.8828"/><rect fill="#E2E2F0" height="30.2969" rx="2.5" ry="2.5" style="stroke:#181818;stroke-width:0.5;" width="92.2236" x="5" y="36"/><text fill="#000000" font-family="sans-serif" font-size="14" lengthAdjust="spacing" textLength="78.2236" x="12" y="55.9951">Application</text><rect fill="#E2E2F0" height="30.2969" rx="2.5" ry="2.5" style="stroke:#181818;stroke-width:0.5;" width="92.2236" x="5" y="609.8828"/><text fill="#000000" font-family="sans-serif" font-size="14" lengthAdjust="spacing" textLength="78.2236" x="12" y="629.8779">Application</text><rect fill="#E2E2F0" height="30.2969" rx="2.5" ry="2.5" style="stroke:#181818;stroke-width:0.5;" width="131.1885" x="146.1738" y="609.8828"/><text fill="#000000" font-family="sans-serif" font-size="14" lengthAdjust="spacing" textLength="117.1885" x="153.1738" y="629.8779">Producer service</text><text fill="#000000" font-family="sans-serif" font-size="14" lengthAdjust="spacing" textLength="94.165" x="337.0518" y="63.9951">Local storage</text><path d="M369.1343,15 C369.1343,5 387.1343,5 387.1343,5 C387.1343,5 405.1343,5 405.1343,15 L405.1343,41 C405.1343,51 387.1343,51 387.1343,51 C387.1343,51 369.1343,51 369.1343,41 L369.1343,15 " fill="#E2E2F0" style="stroke:#181818;stroke-width:1.5;"/><path d="M369.1343,15 C369.1343,25 387.1343,25 387.1343,25 C387.1343,25 405.1343,25 405.1343,15 " fill="none" style="stroke:#181818;stroke-width:1.5;"/><text fill="#000000" font-family="sans-serif" font-size="14" lengthAdjust="spacing" textLength="94.165" x="337.0518" y="622.8779">Local storage</text><path d="M369.1343,636.1797 C369.1343,626.1797 387.1343,626.1797 387.1343,626.1797 C387.1343,626.1797 405.1343,626.1797 405.1343,636.1797 L405.1343,662.1797 C405.1343,672.1797 387.1343,672.1797 387.1343,672.1797 C387.1343,672.1797 369.1343,672.1797 369.1343,662.1797 L369.1343,636.1797 " fill="#E2E2F0" style="stroke:#181818;stroke-width:1.5;"/><path d="M369.1343,636.1797 C369.1343,646.1797 387.1343,646.1797 387.1343,646.1797 C387.1343,646.1797 405.1343,646.1797 405.1343,636.1797 " fill="none" style="stroke:#181818;stroke-width:1.5;"/><rect fill="#E2E2F0" height="30.2969" rx="2.5" ry="2.5" style="stroke:#181818;stroke-width:0.5;" width="111.5557" x="447.2168" y="36"/><text fill="#000000" font-family="sans-serif" font-size="14" lengthAdjust="spacing" textLength="97.5557" x="454.2168" y="55.9951">Record queue</text><rect fill="#E2E2F0" height="30.2969" rx="2.5" ry="2.5" style="stroke:#181818;stroke-width:0.5;" width="111.5557" x="447.2168" y="609.8828"/><text fill="#000000" font-family="sans-serif" font-size="14" lengthAdjust="spacing" textLength="97.5557" x="454.2168" y="629.8779">Record queue</text><rect fill="#E2E2F0" height="30.2969" rx="2.5" ry="2.5" style="stroke:#181818;stroke-width:0.5;" width="186.5938" x="568.7725" y="609.8828"/><text fill="#000000" font-family="sans-serif" font-size="14" lengthAdjust="spacing" textLength="172.5938" x="575.7725" y="629.8779">Background send thread</text><text fill="#000000" font-family="sans-serif" font-size="14" lengthAdjust="spacing" textLength="91.4375" x="765.3662" y="63.9951">Kafka cluster</text><path d="M796.085,15 C796.085,5 814.085,5 814.085,5 C814.085,5 832.085,5 832.085,15 L832.085,41 C832.085,51 814.085,51 814.085,51 C814.085,51 796.085,51 796.085,41 L796.085,15 " fill="#E2E2F0" style="stroke:#181818;stroke-width:1.5;"/><path d="M796.085,15 C796.085,25 814.085,25 814.085,25 C814.085,25 832.085,25 832.085,15 " fill="none" style="stroke:#181818;stroke-width:1.5;"/><text fill="#000000" font-family="sans-serif" font-size="14" lengthAdjust="spacing" textLength="91.4375" x="765.3662" y="622.8779">Kafka cluster</text><path d="M796.085,636.1797 C796.085,626.1797 814.085,626.1797 814.085,626.1797 C814.085,626.1797 832.085,626.1797 832.085,636.1797 L832.085,662.1797 C832.085,672.1797 814.085,672.1797 814.085,672.1797 C814.085,672.1797 796.085,672.1797 796.085,662.1797 L796.085,636.1797 " fill="#E2E2F0" style="stroke:#181818;stroke-width:1.5;"/><path d="M796.085,636.1797 C796.085,646.1797 814.085,646.1797 814.085,646.1797 C814.085,646.1797 832.085,646.1797 832.085,636.1797 " fill="none" style="stroke:#181818;stroke-width:1.5;"/><rect fill="#FFFFFF" height="87.3984" style="stroke:#181818;stroke-width:1.0;" width="10" x="206.7681" y="139.7266"/><rect fill="#FFFFFF" height="87.3984" style="stroke:#181818;stroke-width:1.0;" width="10" x="206.7681" y="505.4844"/><rect fill="#FFFFFF" height="87.3984" style="stroke:#181818;stroke-width:1.0;" width="10" x="657.0693" y="292.5547"/><rect fill="#FFFFFF" height="29.1328" style="stroke:#181818;stroke-width:1.0;" width="10" x="657.0693" y="433.2188"/><polygon fill="#181818" points="134.1738,94.4297,144.1738,98.4297,134.1738,102.4297,138.1738,98.4297" style="stroke:#181818;stroke-width:1.0;"/><line style="stroke:#181818;stroke-width:1.0;" x1="51.1118" x2="140.1738" y1="98.4297" y2="98.4297"/><text fill="#000000" font-family="sans-serif" font-size="13" lengthAdjust="spacing" textLength="71.062" x="58.1118" y="93.3638">new object</text><rect fill="#E2E2F0" height="30.2969" rx="2.5" ry="2.5" style="stroke:#181818;stroke-width:0.5;" width="131.1885" x="146.1738" y="77.2969"/><text fill="#000000" font-family="sans-serif" font-size="14" lengthAdjust="spacing" textLength="117.1885" x="153.1738" y="97.292">Producer service</text><polygon fill="#181818" points="375.1343,135.7266,385.1343,139.7266,375.1343,143.7266,379.1343,139.7266" style="stroke:#181818;stroke-width:1.0;"/><line style="stroke:#181818;stroke-width:1.0;" x1="216.7681" x2="381.1343" y1="139.7266" y2="139.7266"/><text fill="#000000" font-family="sans-serif" font-size="13" lengthAdjust="spacing" textLength="151.3662" x="223.7681" y="134.6606">unsent records request</text><polygon fill="#181818" points="227.7681,164.8594,217.7681,168.8594,227.7681,172.8594,223.7681,168.8594" style="stroke:#181818;stroke-width:1.0;"/><line style="stroke:#181818;stroke-width:1.0;stroke-dasharray:2.0,2.0;" x1="221.7681" x2="386.1343" y1="168.8594" y2="168.8594"/><text fill="#000000" font-family="sans-serif" font-size="13" lengthAdjust="spacing" textLength="97.5317" x="233.7681" y="163.7935">unsent records</text><polygon fill="#181818" points="490.9946,193.9922,500.9946,197.9922,490.9946,201.9922,494.9946,197.9922" style="stroke:#181818;stroke-width:1.0;"/><line style="stroke:#181818;stroke-width:1.0;" x1="216.7681" x2="496.9946" y1="197.9922" y2="197.9922"/><text fill="#000000" font-family="sans-serif" font-size="13" lengthAdjust="spacing" textLength="97.5317" x="223.7681" y="192.9263">unsent records</text><line style="stroke:#181818;stroke-width:1.0;" x1="566.7725" x2="556.7725" y1="227.125" y2="223.125"/><line style="stroke:#181818;stroke-width:1.0;" x1="566.7725" x2="556.7725" y1="227.125" y2="231.125"/><line style="stroke:#181818;stroke-width:1.0;" x1="211.7681" x2="567.7725" y1="227.125" y2="227.125"/><text fill="#000000" font-family="sans-serif" font-size="13" lengthAdjust="spacing" textLength="218.3848" x="218.7681" y="222.0591">signal to start background thread</text><rect fill="#E2E2F0" height="30.2969" rx="2.5" ry="2.5" style="stroke:#181818;stroke-width:0.5;" width="186.5938" x="568.7725" y="205.9922"/><text fill="#000000" font-family="sans-serif" font-size="14" lengthAdjust="spacing" textLength="172.5938" x="575.7725" y="225.9873">Background send thread</text><path d="M317.0518,254.2891 L393.6758,254.2891 L393.6758,261.4219 L383.6758,271.4219 L317.0518,271.4219 L317.0518,254.2891 " fill="#EEEEEE" style="stroke:#000000;stroke-width:1.5;"/><rect fill="none" height="223.0625" style="stroke:#000000;stroke-width:1.5;" width="555.752" x="317.0518" y="254.2891"/><text fill="#000000" font-family="sans-serif" font-size="13" font-weight="bold" lengthAdjust="spacing" textLength="31.624" x="332.0518" y="267.356">loop</text><polygon fill="#181818" points="513.9946,288.5547,503.9946,292.5547,513.9946,296.5547,509.9946,292.5547" style="stroke:#181818;stroke-width:1.0;"/><line style="stroke:#181818;stroke-width:1.0;" x1="507.9946" x2="656.0693" y1="292.5547" y2="292.5547"/><text fill="#000000" font-family="sans-serif" font-size="13" lengthAdjust="spacing" textLength="102.6479" x="519.9946" y="287.4888">records request</text><polygon fill="#181818" points="645.0693,317.6875,655.0693,321.6875,645.0693,325.6875,649.0693,321.6875" style="stroke:#181818;stroke-width:1.0;"/><line style="stroke:#181818;stroke-width:1.0;stroke-dasharray:2.0,2.0;" x1="502.9946" x2="651.0693" y1="321.6875" y2="321.6875"/><text fill="#000000" font-family="sans-serif" font-size="13" lengthAdjust="spacing" textLength="48.8135" x="509.9946" y="316.6216">records</text><polygon fill="#181818" points="802.085,346.8203,812.085,350.8203,802.085,354.8203,806.085,350.8203" style="stroke:#181818;stroke-width:1.0;"/><line style="stroke:#181818;stroke-width:1.0;" x1="667.0693" x2="808.085" y1="350.8203" y2="350.8203"/><text fill="#000000" font-family="sans-serif" font-size="13" lengthAdjust="spacing" textLength="48.8135" x="674.0693" y="345.7544">records</text><polygon fill="#181818" points="673.0693,375.9531,663.0693,379.9531,673.0693,383.9531,669.0693,379.9531" style="stroke:#181818;stroke-width:1.0;"/><line style="stroke:#181818;stroke-width:1.0;stroke-dasharray:2.0,2.0;" x1="667.0693" x2="813.085" y1="379.9531" y2="379.9531"/><text fill="#000000" font-family="sans-serif" font-size="13" lengthAdjust="spacing" textLength="82.4053" x="679.0693" y="374.8872">confirmation</text><path d="M327.0518,394.9531 L391.4946,394.9531 L391.4946,402.0859 L381.4946,412.0859 L327.0518,412.0859 L327.0518,394.9531 " fill="#EEEEEE" style="stroke:#000000;stroke-width:1.5;"/><rect fill="none" height="75.3984" style="stroke:#000000;stroke-width:1.5;" width="438.3145" x="327.0518" y="394.9531"/><text fill="#000000" font-family="sans-serif" font-size="13" font-weight="bold" lengthAdjust="spacing" textLength="19.4429" x="342.0518" y="408.02">alt</text><text fill="#000000" font-family="sans-serif" font-size="11" font-weight="bold" lengthAdjust="spacing" textLength="235.0928" x="406.4946" y="407.1636">[records have been sent successfully]</text><polygon fill="#181818" points="513.9946,429.2188,503.9946,433.2188,513.9946,437.2188,509.9946,433.2188" style="stroke:#181818;stroke-width:1.0;"/><line style="stroke:#181818;stroke-width:1.0;" x1="507.9946" x2="656.0693" y1="433.2188" y2="433.2188"/><text fill="#000000" font-family="sans-serif" font-size="13" lengthAdjust="spacing" textLength="94.7896" x="519.9946" y="428.1528">delete request</text><polygon fill="#181818" points="398.1343,458.3516,388.1343,462.3516,398.1343,466.3516,394.1343,462.3516" style="stroke:#181818;stroke-width:1.0;"/><line style="stroke:#181818;stroke-width:1.0;" x1="392.1343" x2="661.0693" y1="462.3516" y2="462.3516"/><text fill="#000000" font-family="sans-serif" font-size="13" lengthAdjust="spacing" textLength="94.7896" x="404.1343" y="457.2856">delete request</text><polygon fill="#181818" points="194.7681,501.4844,204.7681,505.4844,194.7681,509.4844,198.7681,505.4844" style="stroke:#181818;stroke-width:1.0;"/><line style="stroke:#181818;stroke-width:1.0;" x1="51.1118" x2="200.7681" y1="505.4844" y2="505.4844"/><text fill="#000000" font-family="sans-serif" font-size="13" lengthAdjust="spacing" textLength="48.8135" x="58.1118" y="500.4185">records</text><polygon fill="#181818" points="375.1343,530.6172,385.1343,534.6172,375.1343,538.6172,379.1343,534.6172" style="stroke:#181818;stroke-width:1.0;"/><line style="stroke:#181818;stroke-width:1.0;" x1="216.7681" x2="381.1343" y1="534.6172" y2="534.6172"/><text fill="#000000" font-family="sans-serif" font-size="13" lengthAdjust="spacing" textLength="48.8135" x="223.7681" y="529.5513">records</text><polygon fill="#181818" points="490.9946,559.75,500.9946,563.75,490.9946,567.75,494.9946,563.75" style="stroke:#181818;stroke-width:1.0;"/><line style="stroke:#181818;stroke-width:1.0;" x1="216.7681" x2="496.9946" y1="563.75" y2="563.75"/><text fill="#000000" font-family="sans-serif" font-size="13" lengthAdjust="spacing" textLength="48.8135" x="223.7681" y="558.6841">records</text><polygon fill="#181818" points="62.1118,588.8828,52.1118,592.8828,62.1118,596.8828,58.1118,592.8828" style="stroke:#181818;stroke-width:1.0;"/><line style="stroke:#181818;stroke-width:1.0;stroke-dasharray:2.0,2.0;" x1="56.1118" x2="210.7681" y1="592.8828" y2="592.8828"/><text fill="#000000" font-family="sans-serif" font-size="13" lengthAdjust="spacing" textLength="82.4053" x="68.1118" y="587.8169">confirmation</text><!--SRC=[bLEvRiCm3Dtr5KJ601bw3Xa2j6ix5Fq3Mg8TDOhawaZGlo_jDh5bsAuxn87bHxv3P3XeMwF78uGzAdVMje8IJI0X-3XggMkq4PxgscY9KJiBpYloS9DzNxrvfvBayq3-f2MjVc6tGc740WF1wjL9D12YyrXT0NTvdtUIV0wVYT8LSfz3db4UAk-ILKp6ZxZtXEe2VkWHlc1vG90cXKZ-0dWKekzciniJlrx35YoTmHKV9ACG8vYcChUqXMHPKWJVkWZypqP252YZFc6a4IenZ6KpgcZOUb9H5k32gjrqg6qGGLUM9KR7AlaceEZ0FpYXQCwYCCxL0gPPHeGF8mJe62RQD0pv_BHPJg2l57y9owSeAniCs3oTTBRK_jYE7HVt8viorBWstJZjyKHG45beBpKaAIc4CXdpnSZ_vQl845DtyIuB-0-IuJwCi2pn3S1lelajMDRkHcRNRDa2NrejswuvDCDxqWVNFxiltm00]--></g></svg>