<svg xmlns="http://www.w3.org/2000/svg" xmlns:xlink="http://www.w3.org/1999/xlink" contentStyleType="text/css" height="430px" preserveAspectRatio="none" style="width:608px;height:430px;background:#FFFFFF;" version="1.1" viewBox="0 0 608 430" width="608px" zoomAndPan="magnify"><defs/><g><!--class Map--><g id="elem_Map"><rect codeLine="3" fill="#F1F1F1" height="96.8906" id="Map" rx="2.5" ry="2.5" style="stroke:#181818;stroke-width:0.5;" width="90.3945" x="164.37" y="15.15"/><ellipse cx="192.3523" cy="31.15" fill="#B4A7E5" rx="11" ry="11" style="stroke:#181818;stroke-width:1.0;"/><path d="M188.2742,26.9156 L188.2742,24.7594 L195.6648,24.7594 L195.6648,26.9156 L193.1961,26.9156 L193.1961,34.9937 L195.6648,34.9937 L195.6648,37.15 L188.2742,37.15 L188.2742,34.9937 L190.7429,34.9937 L190.7429,26.9156 L188.2742,26.9156 Z " fill="#000000"/><text fill="#000000" font-family="sans-serif" font-size="14" font-style="italic" lengthAdjust="spacing" textLength="29.5449" x="209.2373" y="35.9967">Map</text><line style="stroke:#181818;stroke-width:0.5;" x1="165.37" x2="253.7645" y1="47.15" y2="47.15"/><line style="stroke:#181818;stroke-width:0.5;" x1="165.37" x2="253.7645" y1="55.15" y2="55.15"/><ellipse cx="175.37" cy="68.7984" fill="#84BE84" rx="3" ry="3" style="stroke:#038048;stroke-width:1.0;"/><text fill="#000000" font-family="sans-serif" font-size="14" lengthAdjust="spacing" textLength="33.9131" x="184.37" y="72.1451">get()</text><ellipse cx="175.37" cy="85.0953" fill="#84BE84" rx="3" ry="3" style="stroke:#038048;stroke-width:1.0;"/><text fill="#000000" font-family="sans-serif" font-size="14" lengthAdjust="spacing" textLength="34.1729" x="184.37" y="88.442">put()</text><ellipse cx="175.37" cy="101.3922" fill="#84BE84" rx="3" ry="3" style="stroke:#038048;stroke-width:1.0;"/><text fill="#000000" font-family="sans-serif" font-size="14" lengthAdjust="spacing" textLength="64.3945" x="184.37" y="104.7389">remove()</text></g><!--class Cache--><g id="elem_Cache"><rect codeLine="8" fill="#F1F1F1" height="113.1875" id="Cache" rx="2.5" ry="2.5" style="stroke:#181818;stroke-width:0.5;" width="90.3945" x="289.37" y="7"/><ellipse cx="311.0554" cy="23" fill="#B4A7E5" rx="11" ry="11" style="stroke:#181818;stroke-width:1.0;"/><path d="M306.9773,18.7656 L306.9773,16.6094 L314.3679,16.6094 L314.3679,18.7656 L311.8992,18.7656 L311.8992,26.8438 L314.3679,26.8438 L314.3679,29 L306.9773,29 L306.9773,26.8438 L309.446,26.8438 L309.446,18.7656 L306.9773,18.7656 Z " fill="#000000"/><text fill="#000000" font-family="sans-serif" font-size="14" font-style="italic" lengthAdjust="spacing" textLength="43.5381" x="326.541" y="27.8467">Cache</text><line style="stroke:#181818;stroke-width:0.5;" x1="290.37" x2="378.7645" y1="39" y2="39"/><line style="stroke:#181818;stroke-width:0.5;" x1="290.37" x2="378.7645" y1="47" y2="47"/><ellipse cx="300.37" cy="60.6484" fill="#84BE84" rx="3" ry="3" style="stroke:#038048;stroke-width:1.0;"/><text fill="#000000" font-family="sans-serif" font-size="14" lengthAdjust="spacing" textLength="33.9131" x="309.37" y="63.9951">get()</text><ellipse cx="300.37" cy="76.9453" fill="#84BE84" rx="3" ry="3" style="stroke:#038048;stroke-width:1.0;"/><text fill="#000000" font-family="sans-serif" font-size="14" lengthAdjust="spacing" textLength="34.1729" x="309.37" y="80.292">put()</text><ellipse cx="300.37" cy="93.2422" fill="#84BE84" rx="3" ry="3" style="stroke:#038048;stroke-width:1.0;"/><text fill="#000000" font-family="sans-serif" font-size="14" lengthAdjust="spacing" textLength="64.3945" x="309.37" y="96.5889">remove()</text><ellipse cx="300.37" cy="109.5391" fill="#84BE84" rx="3" ry="3" style="stroke:#038048;stroke-width:1.0;"/><text fill="#000000" font-family="sans-serif" font-size="14" lengthAdjust="spacing" textLength="57.4424" x="309.37" y="112.8857">resync()</text></g><!--class ConsumerService--><g id="elem_ConsumerService"><rect codeLine="15" fill="#F1F1F1" height="80.5938" id="ConsumerService" rx="2.5" ry="2.5" style="stroke:#181818;stroke-width:0.5;" width="155.1289" x="7" y="261.67"/><ellipse cx="22" cy="277.67" fill="#B4A7E5" rx="11" ry="11" style="stroke:#181818;stroke-width:1.0;"/><path d="M17.9219,273.4356 L17.9219,271.2794 L25.3125,271.2794 L25.3125,273.4356 L22.8438,273.4356 L22.8438,281.5137 L25.3125,281.5137 L25.3125,283.67 L17.9219,283.67 L17.9219,281.5137 L20.3906,281.5137 L20.3906,273.4356 L17.9219,273.4356 Z " fill="#000000"/><text fill="#000000" font-family="sans-serif" font-size="14" font-style="italic" lengthAdjust="spacing" textLength="123.1289" x="36" y="282.5167">ConsumerService</text><line style="stroke:#181818;stroke-width:0.5;" x1="8" x2="161.1289" y1="293.67" y2="293.67"/><line style="stroke:#181818;stroke-width:0.5;" x1="8" x2="161.1289" y1="301.67" y2="301.67"/><ellipse cx="18" cy="315.3184" fill="#84BE84" rx="3" ry="3" style="stroke:#038048;stroke-width:1.0;"/><text fill="#000000" font-family="sans-serif" font-size="14" lengthAdjust="spacing" textLength="78.1143" x="27" y="318.6651">subscribe()</text><ellipse cx="18" cy="331.6153" fill="#84BE84" rx="3" ry="3" style="stroke:#038048;stroke-width:1.0;"/><text fill="#000000" font-family="sans-serif" font-size="14" lengthAdjust="spacing" textLength="95.8604" x="27" y="334.962">unsubscribe()</text></g><!--class Producer--><g id="elem_Producer"><rect codeLine="20" fill="#F1F1F1" height="64.2969" id="Producer" rx="2.5" ry="2.5" style="stroke:#181818;stroke-width:0.5;" width="94.5898" x="507.27" y="269.82"/><ellipse cx="522.27" cy="285.82" fill="#B4A7E5" rx="11" ry="11" style="stroke:#181818;stroke-width:1.0;"/><path d="M518.1919,281.5856 L518.1919,279.4294 L525.5825,279.4294 L525.5825,281.5856 L523.1138,281.5856 L523.1138,289.6638 L525.5825,289.6638 L525.5825,291.82 L518.1919,291.82 L518.1919,289.6638 L520.6606,289.6638 L520.6606,281.5856 L518.1919,281.5856 Z " fill="#000000"/><text fill="#000000" font-family="sans-serif" font-size="14" font-style="italic" lengthAdjust="spacing" textLength="62.5898" x="536.27" y="290.6667">Producer</text><line style="stroke:#181818;stroke-width:0.5;" x1="508.27" x2="600.8598" y1="301.82" y2="301.82"/><line style="stroke:#181818;stroke-width:0.5;" x1="508.27" x2="600.8598" y1="309.82" y2="309.82"/><ellipse cx="518.27" cy="323.4684" fill="#84BE84" rx="3" ry="3" style="stroke:#038048;stroke-width:1.0;"/><text fill="#000000" font-family="sans-serif" font-size="14" lengthAdjust="spacing" textLength="44.5908" x="527.27" y="326.8151">send()</text></g><!--class KafkaCache--><g id="elem_KafkaCache"><rect codeLine="24" fill="#F1F1F1" height="243.5625" id="KafkaCache" rx="2.5" ry="2.5" style="stroke:#181818;stroke-width:0.5;" width="274.6299" x="197.25" y="180.19"/><ellipse cx="288.8584" cy="196.19" fill="#ADD1B2" rx="11" ry="11" style="stroke:#181818;stroke-width:1.0;"/><path d="M291.8271,201.8306 Q291.249,202.1275 290.6084,202.2681 Q289.9678,202.4244 289.2646,202.4244 Q286.7646,202.4244 285.4365,200.7838 Q284.124,199.1275 284.124,196.0025 Q284.124,192.8775 285.4365,191.2213 Q286.7646,189.565 289.2646,189.565 Q289.9678,189.565 290.6084,189.7213 Q291.2646,189.8775 291.8271,190.1744 L291.8271,192.8931 Q291.2021,192.315 290.6084,192.0494 Q290.0146,191.7681 289.3896,191.7681 Q288.0459,191.7681 287.3584,192.8463 Q286.6709,193.9088 286.6709,196.0025 Q286.6709,198.0963 287.3584,199.1744 Q288.0459,200.2369 289.3896,200.2369 Q290.0146,200.2369 290.6084,199.9713 Q291.2021,199.69 291.8271,199.1119 L291.8271,201.8306 Z " fill="#000000"/><text fill="#000000" font-family="sans-serif" font-size="14" lengthAdjust="spacing" textLength="82.9131" x="309.3584" y="201.0367">KafkaCache</text><line style="stroke:#181818;stroke-width:0.5;" x1="198.25" x2="470.8799" y1="212.19" y2="212.19"/><rect fill="none" height="6" style="stroke:#C82930;stroke-width:1.0;" width="6" x="205.25" y="222.8384"/><text fill="#000000" font-family="sans-serif" font-size="14" lengthAdjust="spacing" textLength="248.6299" x="217.25" y="229.1851">ConsumerService consumerService</text><rect fill="none" height="6" style="stroke:#C82930;stroke-width:1.0;" width="6" x="205.25" y="239.1353"/><text fill="#000000" font-family="sans-serif" font-size="14" lengthAdjust="spacing" textLength="130.0742" x="217.25" y="245.482">Producer producer</text><rect fill="none" height="6" style="stroke:#C82930;stroke-width:1.0;" width="6" x="205.25" y="255.4322"/><text fill="#000000" font-family="sans-serif" font-size="14" lengthAdjust="spacing" textLength="110.1543" x="217.25" y="261.7789">Map localCache</text><rect fill="none" height="6" style="stroke:#C82930;stroke-width:1.0;" width="6" x="205.25" y="271.7291"/><text fill="#000000" font-family="sans-serif" font-size="14" lengthAdjust="spacing" textLength="110.9678" x="217.25" y="278.0757">Serde keySerde</text><rect fill="none" height="6" style="stroke:#C82930;stroke-width:1.0;" width="6" x="205.25" y="288.0259"/><text fill="#000000" font-family="sans-serif" font-size="14" lengthAdjust="spacing" textLength="124.2021" x="217.25" y="294.3726">Serde valueSerde</text><line style="stroke:#181818;stroke-width:0.5;" x1="198.25" x2="470.8799" y1="301.6744" y2="301.6744"/><ellipse cx="208.25" cy="315.3228" fill="#84BE84" rx="3" ry="3" style="stroke:#038048;stroke-width:1.0;"/><text fill="#000000" font-family="sans-serif" font-size="14" lengthAdjust="spacing" textLength="33.9131" x="217.25" y="318.6695">get()</text><ellipse cx="208.25" cy="331.6197" fill="#84BE84" rx="3" ry="3" style="stroke:#038048;stroke-width:1.0;"/><text fill="#000000" font-family="sans-serif" font-size="14" lengthAdjust="spacing" textLength="34.1729" x="217.25" y="334.9664">put()</text><ellipse cx="208.25" cy="347.9166" fill="#84BE84" rx="3" ry="3" style="stroke:#038048;stroke-width:1.0;"/><text fill="#000000" font-family="sans-serif" font-size="14" lengthAdjust="spacing" textLength="64.3945" x="217.25" y="351.2632">remove()</text><ellipse cx="208.25" cy="364.2134" fill="#84BE84" rx="3" ry="3" style="stroke:#038048;stroke-width:1.0;"/><text fill="#000000" font-family="sans-serif" font-size="14" lengthAdjust="spacing" textLength="57.4424" x="217.25" y="367.5601">resync()</text><rect fill="#F24D5C" height="6" style="stroke:#C82930;stroke-width:1.0;" width="6" x="205.25" y="377.5103"/><text fill="#000000" font-family="sans-serif" font-size="14" lengthAdjust="spacing" textLength="48.9727" x="217.25" y="383.857">listen()</text><rect fill="#F24D5C" height="6" style="stroke:#C82930;stroke-width:1.0;" width="6" x="205.25" y="393.8072"/><text fill="#000000" font-family="sans-serif" font-size="14" lengthAdjust="spacing" textLength="178.8008" x="217.25" y="400.1539">createConsumerService()</text><rect fill="#F24D5C" height="6" style="stroke:#C82930;stroke-width:1.0;" width="6" x="205.25" y="410.1041"/><text fill="#000000" font-family="sans-serif" font-size="14" lengthAdjust="spacing" textLength="118.2617" x="217.25" y="416.4507">createProducer()</text></g><!--reverse link Map to Cache--><g id="link_Map_Cache"><path codeLine="40" d="M272.97,63.59 C284.37,63.59 277.77,63.59 289.17,63.59 " fill="none" id="Map-backto-Cache" style="stroke:#181818;stroke-width:1.0;"/><polygon fill="none" points="254.97,63.59,272.97,69.59,272.97,57.59,254.97,63.59" style="stroke:#181818;stroke-width:1.0;"/></g><!--reverse link Cache to KafkaCache--><g id="link_Cache_KafkaCache"><path codeLine="41" d="M334.56,138.61 C334.56,156.5 334.56,159.04 334.56,179.7 " fill="none" id="Cache-backto-KafkaCache" style="stroke:#181818;stroke-width:1.0;stroke-dasharray:7.0,7.0;"/><polygon fill="none" points="334.56,120.61,328.56,138.61,340.56,138.61,334.56,120.61" style="stroke:#181818;stroke-width:1.0;"/></g><!--link ConsumerService to KafkaCache--><g id="link_ConsumerService_KafkaCache"><path codeLine="43" d="M162.2,301.97 C173.76,301.97 173.32,301.97 184.88,301.97 " fill="none" id="ConsumerService-to-KafkaCache" style="stroke:#181818;stroke-width:1.0;"/><polygon fill="#181818" points="196.88,301.97,190.88,297.97,184.88,301.97,190.88,305.97,196.88,301.97" style="stroke:#181818;stroke-width:1.0;"/></g><!--reverse link KafkaCache to Producer--><g id="link_KafkaCache_Producer"><path codeLine="44" d="M484.06,301.97 C495.67,301.97 495.27,301.97 506.87,301.97 " fill="none" id="KafkaCache-backto-Producer" style="stroke:#181818;stroke-width:1.0;"/><polygon fill="#181818" points="472.06,301.97,478.06,305.97,484.06,301.97,478.06,297.97,472.06,301.97" style="stroke:#181818;stroke-width:1.0;"/></g><!--SRC=[bL7BRiCW4Bpp5Hpx4Fc2t7AiAbNg5spMQniPWxM0gwZflySsDiK-jPncXfrXDVXEsm4OUkbRgDoNjesimNWIGjj0N0EIV8T1VWivdTU6mjDpWaFCaAbt8qtift1T05lweszb_cPnIIbZdFMn9_ua7ZNcG1-l7bbViplQKjf5VB2h8X9dBzagpQ01x-KRr1sKwwhZexZdQIZ73Yj8yjoMSGXcIKpQvAj8TdHRGAcDO2BzglyhQiansWUo6qCc27JOVt-vxPqg4FE-vxjIh9isgFHj8hLnlfzEHJj254szA6MedWs7RlOpQ-hsvWC0]--></g></svg>