<svg xmlns="http://www.w3.org/2000/svg" xmlns:xlink="http://www.w3.org/1999/xlink" contentStyleType="text/css" height="393px" preserveAspectRatio="none" style="width:478px;height:393px;background:#FFFFFF;" version="1.1" viewBox="0 0 478 393" width="478px" zoomAndPan="magnify"><defs/><g><!--class ConfigurationListener--><g id="elem_ConfigurationListener"><rect codeLine="3" fill="#F1F1F1" height="64.2969" id="ConfigurationListener" rx="2.5" ry="2.5" style="stroke:#181818;stroke-width:0.5;" width="183.2725" x="26.93" y="23.3"/><ellipse cx="41.93" cy="39.3" fill="#B4A7E5" rx="11" ry="11" style="stroke:#181818;stroke-width:1.0;"/><path d="M37.8519,35.0656 L37.8519,32.9094 L45.2425,32.9094 L45.2425,35.0656 L42.7738,35.0656 L42.7738,43.1438 L45.2425,43.1438 L45.2425,45.3 L37.8519,45.3 L37.8519,43.1438 L40.3206,43.1438 L40.3206,35.0656 L37.8519,35.0656 Z " fill="#000000"/><text fill="#000000" font-family="sans-serif" font-size="14" font-style="italic" lengthAdjust="spacing" textLength="151.2725" x="55.93" y="44.1467">ConfigurationListener</text><line style="stroke:#181818;stroke-width:0.5;" x1="27.93" x2="209.2025" y1="55.3" y2="55.3"/><line style="stroke:#181818;stroke-width:0.5;" x1="27.93" x2="209.2025" y1="63.3" y2="63.3"/><ellipse cx="37.93" cy="76.9484" fill="#84BE84" rx="3" ry="3" style="stroke:#038048;stroke-width:1.0;"/><text fill="#000000" font-family="sans-serif" font-size="14" lengthAdjust="spacing" textLength="77.0068" x="46.93" y="80.2951">configure()</text></g><!--class ConfigurationService--><g id="elem_ConfigurationService"><rect codeLine="7" fill="#F1F1F1" height="96.8906" id="ConfigurationService" rx="2.5" ry="2.5" style="stroke:#181818;stroke-width:0.5;" width="178.6855" x="245.22" y="7"/><ellipse cx="260.22" cy="23" fill="#B4A7E5" rx="11" ry="11" style="stroke:#181818;stroke-width:1.0;"/><path d="M256.1419,18.7656 L256.1419,16.6094 L263.5325,16.6094 L263.5325,18.7656 L261.0638,18.7656 L261.0638,26.8438 L263.5325,26.8438 L263.5325,29 L256.1419,29 L256.1419,26.8438 L258.6106,26.8438 L258.6106,18.7656 L256.1419,18.7656 Z " fill="#000000"/><text fill="#000000" font-family="sans-serif" font-size="14" font-style="italic" lengthAdjust="spacing" textLength="146.6855" x="274.22" y="27.8467">ConfigurationService</text><line style="stroke:#181818;stroke-width:0.5;" x1="246.22" x2="422.9055" y1="39" y2="39"/><line style="stroke:#181818;stroke-width:0.5;" x1="246.22" x2="422.9055" y1="47" y2="47"/><ellipse cx="256.22" cy="60.6484" fill="#84BE84" rx="3" ry="3" style="stroke:#038048;stroke-width:1.0;"/><text fill="#000000" font-family="sans-serif" font-size="14" lengthAdjust="spacing" textLength="128.8574" x="265.22" y="63.9951">getConfiguration()</text><ellipse cx="256.22" cy="76.9453" fill="#84BE84" rx="3" ry="3" style="stroke:#038048;stroke-width:1.0;"/><text fill="#000000" font-family="sans-serif" font-size="14" lengthAdjust="spacing" textLength="121.5498" x="265.22" y="80.292">registerListener()</text><ellipse cx="256.22" cy="93.2422" fill="#84BE84" rx="3" ry="3" style="stroke:#038048;stroke-width:1.0;"/><text fill="#000000" font-family="sans-serif" font-size="14" lengthAdjust="spacing" textLength="139.2959" x="265.22" y="96.5889">unregisterListener()</text></g><!--class ConsumerService--><g id="elem_ConsumerService"><rect codeLine="13" fill="#F1F1F1" height="80.5938" id="ConsumerService" rx="2.5" ry="2.5" style="stroke:#181818;stroke-width:0.5;" width="155.1289" x="7" y="265.63"/><ellipse cx="22" cy="281.63" fill="#B4A7E5" rx="11" ry="11" style="stroke:#181818;stroke-width:1.0;"/><path d="M17.9219,277.3956 L17.9219,275.2394 L25.3125,275.2394 L25.3125,277.3956 L22.8438,277.3956 L22.8438,285.4738 L25.3125,285.4738 L25.3125,287.63 L17.9219,287.63 L17.9219,285.4738 L20.3906,285.4738 L20.3906,277.3956 L17.9219,277.3956 Z " fill="#000000"/><text fill="#000000" font-family="sans-serif" font-size="14" font-style="italic" lengthAdjust="spacing" textLength="123.1289" x="36" y="286.4767">ConsumerService</text><line style="stroke:#181818;stroke-width:0.5;" x1="8" x2="161.1289" y1="297.63" y2="297.63"/><line style="stroke:#181818;stroke-width:0.5;" x1="8" x2="161.1289" y1="305.63" y2="305.63"/><ellipse cx="18" cy="319.2784" fill="#84BE84" rx="3" ry="3" style="stroke:#038048;stroke-width:1.0;"/><text fill="#000000" font-family="sans-serif" font-size="14" lengthAdjust="spacing" textLength="78.1143" x="27" y="322.6251">subscribe()</text><ellipse cx="18" cy="335.5753" fill="#84BE84" rx="3" ry="3" style="stroke:#038048;stroke-width:1.0;"/><text fill="#000000" font-family="sans-serif" font-size="14" lengthAdjust="spacing" textLength="95.8604" x="27" y="338.922">unsubscribe()</text></g><!--class KafkaConfigurationService--><g id="elem_KafkaConfigurationService"><rect codeLine="18" fill="#F1F1F1" height="162.0781" id="KafkaConfigurationService" rx="2.5" ry="2.5" style="stroke:#181818;stroke-width:0.5;" width="274.6299" x="197.25" y="224.89"/><ellipse cx="237.7062" cy="240.89" fill="#ADD1B2" rx="11" ry="11" style="stroke:#181818;stroke-width:1.0;"/><path d="M240.675,246.5306 Q240.0968,246.8275 239.4562,246.9681 Q238.8156,247.1244 238.1125,247.1244 Q235.6125,247.1244 234.2843,245.4838 Q232.9718,243.8275 232.9718,240.7025 Q232.9718,237.5775 234.2843,235.9213 Q235.6125,234.265 238.1125,234.265 Q238.8156,234.265 239.4562,234.4213 Q240.1125,234.5775 240.675,234.8744 L240.675,237.5931 Q240.05,237.015 239.4562,236.7494 Q238.8625,236.4681 238.2375,236.4681 Q236.8937,236.4681 236.2062,237.5463 Q235.5187,238.6088 235.5187,240.7025 Q235.5187,242.7963 236.2062,243.8744 Q236.8937,244.9369 238.2375,244.9369 Q238.8625,244.9369 239.4562,244.6713 Q240.05,244.39 240.675,243.8119 L240.675,246.5306 Z " fill="#000000"/><text fill="#000000" font-family="sans-serif" font-size="14" lengthAdjust="spacing" textLength="186.0605" x="257.3631" y="245.7367">KafkaConfigurationService</text><line style="stroke:#181818;stroke-width:0.5;" x1="198.25" x2="470.8799" y1="256.89" y2="256.89"/><rect fill="none" height="6" style="stroke:#C82930;stroke-width:1.0;" width="6" x="205.25" y="267.5384"/><text fill="#000000" font-family="sans-serif" font-size="14" lengthAdjust="spacing" textLength="248.6299" x="217.25" y="273.8851">ConsumerService consumerService</text><rect fill="none" height="6" style="stroke:#C82930;stroke-width:1.0;" width="6" x="205.25" y="283.8353"/><text fill="#000000" font-family="sans-serif" font-size="14" lengthAdjust="spacing" textLength="93.707" x="217.25" y="290.182">Map listeners</text><rect fill="none" height="6" style="stroke:#C82930;stroke-width:1.0;" width="6" x="205.25" y="300.1322"/><text fill="#000000" font-family="sans-serif" font-size="14" lengthAdjust="spacing" textLength="129.3154" x="217.25" y="306.4789">Map actualConfigs</text><line style="stroke:#181818;stroke-width:0.5;" x1="198.25" x2="470.8799" y1="313.7806" y2="313.7806"/><ellipse cx="208.25" cy="327.4291" fill="#84BE84" rx="3" ry="3" style="stroke:#038048;stroke-width:1.0;"/><text fill="#000000" font-family="sans-serif" font-size="14" lengthAdjust="spacing" textLength="128.8574" x="217.25" y="330.7757">getConfiguration()</text><ellipse cx="208.25" cy="343.7259" fill="#84BE84" rx="3" ry="3" style="stroke:#038048;stroke-width:1.0;"/><text fill="#000000" font-family="sans-serif" font-size="14" lengthAdjust="spacing" textLength="121.5498" x="217.25" y="347.0726">registerListener()</text><ellipse cx="208.25" cy="360.0228" fill="#84BE84" rx="3" ry="3" style="stroke:#038048;stroke-width:1.0;"/><text fill="#000000" font-family="sans-serif" font-size="14" lengthAdjust="spacing" textLength="139.2959" x="217.25" y="363.3695">unregisterListener()</text><rect fill="#F24D5C" height="6" style="stroke:#C82930;stroke-width:1.0;" width="6" x="205.25" y="373.3197"/><text fill="#000000" font-family="sans-serif" font-size="14" lengthAdjust="spacing" textLength="48.9727" x="217.25" y="379.6664">listen()</text></g><!--link ConfigurationListener to ConfigurationService--><g id="link_ConfigurationListener_ConfigurationService"><path codeLine="28" d="M210.53,55.45 C222,55.45 221.47,55.45 232.93,55.45 " fill="none" id="ConfigurationListener-to-ConfigurationService" style="stroke:#181818;stroke-width:1.0;"/><polygon fill="none" points="244.93,55.45,238.93,51.45,232.93,55.45,238.93,59.45,244.93,55.45" style="stroke:#181818;stroke-width:1.0;"/></g><!--reverse link ConfigurationService to KafkaConfigurationService--><g id="link_ConfigurationService_KafkaConfigurationService"><path codeLine="29" d="M334.56,122.36 C334.56,156.34 334.56,184.78 334.56,224.41 " fill="none" id="ConfigurationService-backto-KafkaConfigurationService" style="stroke:#181818;stroke-width:1.0;stroke-dasharray:7.0,7.0;"/><polygon fill="none" points="334.56,104.36,328.56,122.36,340.56,122.36,334.56,104.36" style="stroke:#181818;stroke-width:1.0;"/></g><!--link ConsumerService to KafkaConfigurationService--><g id="link_ConsumerService_KafkaConfigurationService"><path codeLine="30" d="M162.2,305.93 C173.76,305.93 173.32,305.93 184.88,305.93 " fill="none" id="ConsumerService-to-KafkaConfigurationService" style="stroke:#181818;stroke-width:1.0;"/><polygon fill="#181818" points="196.88,305.93,190.88,301.93,184.88,305.93,190.88,309.93,196.88,305.93" style="stroke:#181818;stroke-width:1.0;"/></g><!--SRC=[hL7BRiCW4Bpp5TpSXyWdLAfoJ2f5oXUioUAW4B1s8Jsq_VTIstdOmb4FuGGpEpEx2n-iRu7WA7aFk_1fVICDE4OXh8z81ZJAPV36DeaWsk3NbYDw9FabP3wlUY3nwLdypAgsI2URmK7KO1pHMTlXXCsVFPr3pdZo1MQQnkc8D0dYLBCcM-FLwHRA5je1iro1ES2TZjNKNu_VVT47jD8D3V8L0XqJkDwT7xY0Bg3FwsSf3X2KScYYAd-Zc9zSfNQn-7uhVkGTsSjDtcX5GbHGSwIy3la-NAOrrGnHRkOoHDMriw6mI_gVcby0]--></g></svg>