<svg xmlns="http://www.w3.org/2000/svg" xmlns:xlink="http://www.w3.org/1999/xlink" contentStyleType="text/css" height="339px" preserveAspectRatio="none" style="width:1157px;height:339px;background:#FFFFFF;" version="1.1" viewBox="0 0 1157 339" width="1157px" zoomAndPan="magnify"><defs/><g><!--class ConsumerService--><g id="elem_ConsumerService"><rect codeLine="3" fill="#F1F1F1" height="48" id="ConsumerService" rx="2.5" ry="2.5" style="stroke:#181818;stroke-width:0.5;" width="155.1289" x="707.13" y="7"/><ellipse cx="722.13" cy="23" fill="#B4A7E5" rx="11" ry="11" style="stroke:#181818;stroke-width:1.0;"/><path d="M718.0519,18.7656 L718.0519,16.6094 L725.4425,16.6094 L725.4425,18.7656 L722.9738,18.7656 L722.9738,26.8438 L725.4425,26.8438 L725.4425,29 L718.0519,29 L718.0519,26.8438 L720.5206,26.8438 L720.5206,18.7656 L718.0519,18.7656 Z " fill="#000000"/><text fill="#000000" font-family="sans-serif" font-size="14" font-style="italic" lengthAdjust="spacing" textLength="123.1289" x="736.13" y="27.8467">ConsumerService</text><line style="stroke:#181818;stroke-width:0.5;" x1="708.13" x2="861.2589" y1="39" y2="39"/><line style="stroke:#181818;stroke-width:0.5;" x1="708.13" x2="861.2589" y1="47" y2="47"/></g><!--class PartitionManagedConsumerService--><g id="elem_PartitionManagedConsumerService"><rect codeLine="4" fill="#F1F1F1" height="48" id="PartitionManagedConsumerService" rx="2.5" ry="2.5" style="stroke:#181818;stroke-width:0.5;" width="278.5996" x="301.4" y="115"/><ellipse cx="316.4" cy="131" fill="#B4A7E5" rx="11" ry="11" style="stroke:#181818;stroke-width:1.0;"/><path d="M312.3219,126.7656 L312.3219,124.6094 L319.7125,124.6094 L319.7125,126.7656 L317.2438,126.7656 L317.2438,134.8438 L319.7125,134.8438 L319.7125,137 L312.3219,137 L312.3219,134.8438 L314.7906,134.8438 L314.7906,126.7656 L312.3219,126.7656 Z " fill="#000000"/><text fill="#000000" font-family="sans-serif" font-size="14" font-style="italic" lengthAdjust="spacing" textLength="246.5996" x="330.4" y="135.8467">PartitionManagedConsumerService</text><line style="stroke:#181818;stroke-width:0.5;" x1="302.4" x2="578.9996" y1="147" y2="147"/><line style="stroke:#181818;stroke-width:0.5;" x1="302.4" x2="578.9996" y1="155" y2="155"/></g><!--class ConfigurationListener--><g id="elem_ConfigurationListener"><rect codeLine="5" fill="#F1F1F1" height="48" id="ConfigurationListener" rx="2.5" ry="2.5" style="stroke:#181818;stroke-width:0.5;" width="183.2725" x="615.06" y="115"/><ellipse cx="630.06" cy="131" fill="#B4A7E5" rx="11" ry="11" style="stroke:#181818;stroke-width:1.0;"/><path d="M625.9819,126.7656 L625.9819,124.6094 L633.3725,124.6094 L633.3725,126.7656 L630.9038,126.7656 L630.9038,134.8438 L633.3725,134.8438 L633.3725,137 L625.9819,137 L625.9819,134.8438 L628.4506,134.8438 L628.4506,126.7656 L625.9819,126.7656 Z " fill="#000000"/><text fill="#000000" font-family="sans-serif" font-size="14" font-style="italic" lengthAdjust="spacing" textLength="151.2725" x="644.06" y="135.8467">ConfigurationListener</text><line style="stroke:#181818;stroke-width:0.5;" x1="616.06" x2="797.3325" y1="147" y2="147"/><line style="stroke:#181818;stroke-width:0.5;" x1="616.06" x2="797.3325" y1="155" y2="155"/></g><!--class AbstractConsumerService--><g id="elem_AbstractConsumerService"><rect codeLine="6" fill="#F1F1F1" height="48" id="AbstractConsumerService" rx="2.5" ry="2.5" style="stroke:#181818;stroke-width:0.5;" width="213.8975" x="599.75" y="284"/><ellipse cx="614.75" cy="300" fill="#A9DCDF" rx="11" ry="11" style="stroke:#181818;stroke-width:1.0;"/><path d="M614.8594,295.3438 L613.7031,300.4219 L616.0313,300.4219 L614.8594,295.3438 Z M613.375,293.1094 L616.3594,293.1094 L619.7188,305.5 L617.2656,305.5 L616.5,302.4375 L613.2188,302.4375 L612.4688,305.5 L610.0313,305.5 L613.375,293.1094 Z " fill="#000000"/><text fill="#000000" font-family="sans-serif" font-size="14" font-style="italic" lengthAdjust="spacing" textLength="181.8975" x="628.75" y="304.8467">AbstractConsumerService</text><line style="stroke:#181818;stroke-width:0.5;" x1="600.75" x2="812.6475" y1="316" y2="316"/><line style="stroke:#181818;stroke-width:0.5;" x1="600.75" x2="812.6475" y1="324" y2="324"/></g><!--class GroupManagedKafkaConsumerService--><g id="elem_GroupManagedKafkaConsumerService"><rect fill="#F1F1F1" height="48" id="GroupManagedKafkaConsumerService" rx="2.5" ry="2.5" style="stroke:#181818;stroke-width:0.5;" width="301.9307" x="848.73" y="284"/><ellipse cx="863.73" cy="300" fill="#ADD1B2" rx="11" ry="11" style="stroke:#181818;stroke-width:1.0;"/><path d="M866.6988,305.6406 Q866.1206,305.9375 865.48,306.0781 Q864.8394,306.2344 864.1363,306.2344 Q861.6363,306.2344 860.3081,304.5938 Q858.9956,302.9375 858.9956,299.8125 Q858.9956,296.6875 860.3081,295.0313 Q861.6363,293.375 864.1363,293.375 Q864.8394,293.375 865.48,293.5313 Q866.1363,293.6875 866.6988,293.9844 L866.6988,296.7031 Q866.0738,296.125 865.48,295.8594 Q864.8863,295.5781 864.2613,295.5781 Q862.9175,295.5781 862.23,296.6563 Q861.5425,297.7188 861.5425,299.8125 Q861.5425,301.9063 862.23,302.9844 Q862.9175,304.0469 864.2613,304.0469 Q864.8863,304.0469 865.48,303.7813 Q866.0738,303.5 866.6988,302.9219 L866.6988,305.6406 Z " fill="#000000"/><text fill="#000000" font-family="sans-serif" font-size="14" lengthAdjust="spacing" textLength="269.9307" x="877.73" y="304.8467">GroupManagedKafkaConsumerService</text><line style="stroke:#181818;stroke-width:0.5;" x1="849.73" x2="1149.6607" y1="316" y2="316"/><line style="stroke:#181818;stroke-width:0.5;" x1="849.73" x2="1149.6607" y1="324" y2="324"/></g><!--class PartitionManagedKafkaConsumerService--><g id="elem_PartitionManagedKafkaConsumerService"><rect fill="#F1F1F1" height="48" id="PartitionManagedKafkaConsumerService" rx="2.5" ry="2.5" style="stroke:#181818;stroke-width:0.5;" width="317.9746" x="246.71" y="284"/><ellipse cx="261.71" cy="300" fill="#ADD1B2" rx="11" ry="11" style="stroke:#181818;stroke-width:1.0;"/><path d="M264.6788,305.6406 Q264.1006,305.9375 263.46,306.0781 Q262.8194,306.2344 262.1163,306.2344 Q259.6163,306.2344 258.2881,304.5938 Q256.9756,302.9375 256.9756,299.8125 Q256.9756,296.6875 258.2881,295.0313 Q259.6163,293.375 262.1163,293.375 Q262.8194,293.375 263.46,293.5313 Q264.1163,293.6875 264.6788,293.9844 L264.6788,296.7031 Q264.0538,296.125 263.46,295.8594 Q262.8663,295.5781 262.2413,295.5781 Q260.8975,295.5781 260.21,296.6563 Q259.5225,297.7188 259.5225,299.8125 Q259.5225,301.9063 260.21,302.9844 Q260.8975,304.0469 262.2413,304.0469 Q262.8663,304.0469 263.46,303.7813 Q264.0538,303.5 264.6788,302.9219 L264.6788,305.6406 Z " fill="#000000"/><text fill="#000000" font-family="sans-serif" font-size="14" lengthAdjust="spacing" textLength="285.9746" x="275.71" y="304.8467">PartitionManagedKafkaConsumerService</text><line style="stroke:#181818;stroke-width:0.5;" x1="247.71" x2="563.6846" y1="316" y2="316"/><line style="stroke:#181818;stroke-width:0.5;" x1="247.71" x2="563.6846" y1="324" y2="324"/></g><!--class GroupManagedConsumerTask--><g id="elem_GroupManagedConsumerTask"><rect fill="#F1F1F1" height="48" id="GroupManagedConsumerTask" rx="2.5" ry="2.5" style="stroke:#181818;stroke-width:0.5;" width="243.3467" x="833.02" y="115"/><ellipse cx="848.02" cy="131" fill="#ADD1B2" rx="11" ry="11" style="stroke:#181818;stroke-width:1.0;"/><path d="M850.9888,136.6406 Q850.4106,136.9375 849.77,137.0781 Q849.1294,137.2344 848.4263,137.2344 Q845.9263,137.2344 844.5981,135.5938 Q843.2856,133.9375 843.2856,130.8125 Q843.2856,127.6875 844.5981,126.0313 Q845.9263,124.375 848.4263,124.375 Q849.1294,124.375 849.77,124.5313 Q850.4263,124.6875 850.9888,124.9844 L850.9888,127.7031 Q850.3638,127.125 849.77,126.8594 Q849.1763,126.5781 848.5513,126.5781 Q847.2075,126.5781 846.52,127.6563 Q845.8325,128.7188 845.8325,130.8125 Q845.8325,132.9063 846.52,133.9844 Q847.2075,135.0469 848.5513,135.0469 Q849.1763,135.0469 849.77,134.7813 Q850.3638,134.5 850.9888,133.9219 L850.9888,136.6406 Z " fill="#000000"/><text fill="#000000" font-family="sans-serif" font-size="14" lengthAdjust="spacing" textLength="211.3467" x="862.02" y="135.8467">GroupManagedConsumerTask</text><line style="stroke:#181818;stroke-width:0.5;" x1="834.02" x2="1075.3667" y1="147" y2="147"/><line style="stroke:#181818;stroke-width:0.5;" x1="834.02" x2="1075.3667" y1="155" y2="155"/></g><!--class PartitionManagedConsumerTask--><g id="elem_PartitionManagedConsumerTask"><rect fill="#F1F1F1" height="48" id="PartitionManagedConsumerTask" rx="2.5" ry="2.5" style="stroke:#181818;stroke-width:0.5;" width="259.3906" x="7" y="115"/><ellipse cx="22" cy="131" fill="#ADD1B2" rx="11" ry="11" style="stroke:#181818;stroke-width:1.0;"/><path d="M24.9688,136.6406 Q24.3906,136.9375 23.75,137.0781 Q23.1094,137.2344 22.4063,137.2344 Q19.9063,137.2344 18.5781,135.5938 Q17.2656,133.9375 17.2656,130.8125 Q17.2656,127.6875 18.5781,126.0313 Q19.9063,124.375 22.4063,124.375 Q23.1094,124.375 23.75,124.5313 Q24.4063,124.6875 24.9688,124.9844 L24.9688,127.7031 Q24.3438,127.125 23.75,126.8594 Q23.1563,126.5781 22.5313,126.5781 Q21.1875,126.5781 20.5,127.6563 Q19.8125,128.7188 19.8125,130.8125 Q19.8125,132.9063 20.5,133.9844 Q21.1875,135.0469 22.5313,135.0469 Q23.1563,135.0469 23.75,134.7813 Q24.3438,134.5 24.9688,133.9219 L24.9688,136.6406 Z " fill="#000000"/><text fill="#000000" font-family="sans-serif" font-size="14" lengthAdjust="spacing" textLength="227.3906" x="36" y="135.8467">PartitionManagedConsumerTask</text><line style="stroke:#181818;stroke-width:0.5;" x1="8" x2="265.3906" y1="147" y2="147"/><line style="stroke:#181818;stroke-width:0.5;" x1="8" x2="265.3906" y1="155" y2="155"/></g><!--reverse link ConsumerService to PartitionManagedConsumerService--><g id="link_ConsumerService_PartitionManagedConsumerService"><path codeLine="8" d="M691.578,60.6901 C634.488,78.2801 573.82,96.98 516.72,114.57 " fill="none" id="ConsumerService-backto-PartitionManagedConsumerService" style="stroke:#181818;stroke-width:1.0;"/><polygon fill="none" points="708.78,55.39,689.8113,54.9561,693.3447,66.4241,708.78,55.39" style="stroke:#181818;stroke-width:1.0;"/></g><!--reverse link ConsumerService to GroupManagedKafkaConsumerService--><g id="link_ConsumerService_GroupManagedKafkaConsumerService"><path codeLine="9" d="M880.5574,44.8028 C962.5774,57.2128 1065.72,78.52 1093.7,115 C1135.59,169.63 1067.41,245.9 1026.69,283.77 " fill="none" id="ConsumerService-backto-GroupManagedKafkaConsumerService" style="stroke:#181818;stroke-width:1.0;stroke-dasharray:7.0,7.0;"/><polygon fill="none" points="862.76,42.11,879.6598,50.7353,881.455,38.8704,862.76,42.11" style="stroke:#181818;stroke-width:1.0;"/></g><!--reverse link PartitionManagedConsumerService to PartitionManagedKafkaConsumerService--><g id="link_PartitionManagedConsumerService_PartitionManagedKafkaConsumerService"><path codeLine="10" d="M432.1372,180.8371 C425.4672,212.6571 417.25,251.85 410.58,283.71 " fill="none" id="PartitionManagedConsumerService-backto-PartitionManagedKafkaConsumerService" style="stroke:#181818;stroke-width:1.0;stroke-dasharray:7.0,7.0;"/><polygon fill="none" points="435.83,163.22,426.2648,179.6062,438.0095,182.0681,435.83,163.22" style="stroke:#181818;stroke-width:1.0;"/></g><!--reverse link ConfigurationListener to AbstractConsumerService--><g id="link_ConfigurationListener_AbstractConsumerService"><path codeLine="12" d="M706.7,181.22 C706.7,213.04 706.7,251.85 706.7,283.71 " fill="none" id="ConfigurationListener-backto-AbstractConsumerService" style="stroke:#181818;stroke-width:1.0;"/><polygon fill="none" points="706.7,163.22,700.7,181.22,712.7,181.22,706.7,163.22" style="stroke:#181818;stroke-width:1.0;"/></g><!--reverse link AbstractConsumerService to GroupManagedKafkaConsumerService--><g id="link_AbstractConsumerService_GroupManagedKafkaConsumerService"><path codeLine="13" d="M832,308 C843.48,308 836.97,308 848.45,308 " fill="none" id="AbstractConsumerService-backto-GroupManagedKafkaConsumerService" style="stroke:#181818;stroke-width:1.0;"/><polygon fill="none" points="814,308,832,314,832,302,814,308" style="stroke:#181818;stroke-width:1.0;"/></g><!--link PartitionManagedKafkaConsumerService to AbstractConsumerService--><g id="link_PartitionManagedKafkaConsumerService_AbstractConsumerService"><path codeLine="14" d="M565.01,308 C576.45,308 569.89,308 581.33,308 " fill="none" id="PartitionManagedKafkaConsumerService-to-AbstractConsumerService" style="stroke:#181818;stroke-width:1.0;"/><polygon fill="none" points="599.33,308,581.33,302,581.33,314,599.33,308" style="stroke:#181818;stroke-width:1.0;"/></g><!--link GroupManagedConsumerTask to GroupManagedKafkaConsumerService--><g id="link_GroupManagedConsumerTask_GroupManagedKafkaConsumerService"><path codeLine="16" d="M960.95,163.22 C969.53,195.04 981.7195,240.2628 990.2995,272.1228 " fill="none" id="GroupManagedConsumerTask-to-GroupManagedKafkaConsumerService" style="stroke:#181818;stroke-width:1.0;"/><polygon fill="#181818" points="993.42,283.71,995.7222,276.8763,990.2995,272.1228,987.9974,278.9566,993.42,283.71" style="stroke:#181818;stroke-width:1.0;"/></g><!--link PartitionManagedConsumerTask to PartitionManagedKafkaConsumerService--><g id="link_PartitionManagedConsumerTask_PartitionManagedKafkaConsumerService"><path codeLine="17" d="M174.38,163.4 C225.71,195.26 306.8749,245.6507 358.0649,277.4307 " fill="none" id="PartitionManagedConsumerTask-to-PartitionManagedKafkaConsumerService" style="stroke:#181818;stroke-width:1.0;"/><polygon fill="#181818" points="368.26,283.76,365.2722,277.197,358.0649,277.4307,361.0527,283.9937,368.26,283.76" style="stroke:#181818;stroke-width:1.0;"/></g><!--SRC=[dP112i9034NtSugiXNW24SI52nK4lK1iCsreEosPgMvwU6jHq6fjSJVCpt_v-JuJLv5I0JwbkBoAIy1IxjaOSO7LKiImBfsl2zOZwqKYVb4Ef462b6vFZXAEXoTRnKfIAzsdT-83ErP3Pn-KeW2hnwCFCBqFM3I8esi_JVCvRBIiguTXIpQZlck4sb7QYjpd_gyuCt0JO5qXDik1IiPY0kPiGmSOAcrAF42L9FtDUSlo54_aCy2k1vpzN-exPahY6m00]--></g></svg>