<svg xmlns="http://www.w3.org/2000/svg" xmlns:xlink="http://www.w3.org/1999/xlink" contentStyleType="text/css" height="447px" preserveAspectRatio="none" style="width:664px;height:447px;background:#FFFFFF;" version="1.1" viewBox="0 0 664 447" width="664px" zoomAndPan="magnify"><defs/><g><!--class ProducerService--><g id="elem_ProducerService"><rect codeLine="3" fill="#F1F1F1" height="48" id="ProducerService" rx="2.5" ry="2.5" style="stroke:#181818;stroke-width:0.5;" width="146.3311" x="229.53" y="115"/><ellipse cx="244.53" cy="131" fill="#B4A7E5" rx="11" ry="11" style="stroke:#181818;stroke-width:1.0;"/><path d="M240.4519,126.7656 L240.4519,124.6094 L247.8425,124.6094 L247.8425,126.7656 L245.3738,126.7656 L245.3738,134.8438 L247.8425,134.8438 L247.8425,137 L240.4519,137 L240.4519,134.8438 L242.9206,134.8438 L242.9206,126.7656 L240.4519,126.7656 Z " fill="#000000"/><text fill="#000000" font-family="sans-serif" font-size="14" font-style="italic" lengthAdjust="spacing" textLength="114.3311" x="258.53" y="135.8467">ProducerService</text><line style="stroke:#181818;stroke-width:0.5;" x1="230.53" x2="374.8611" y1="147" y2="147"/><line style="stroke:#181818;stroke-width:0.5;" x1="230.53" x2="374.8611" y1="155" y2="155"/></g><!--class SendStrategy--><g id="elem_SendStrategy"><rect codeLine="4" fill="#F1F1F1" height="48" id="SendStrategy" rx="2.5" ry="2.5" style="stroke:#181818;stroke-width:0.5;" width="127.2451" x="48.07" y="223"/><ellipse cx="63.07" cy="239" fill="#B4A7E5" rx="11" ry="11" style="stroke:#181818;stroke-width:1.0;"/><path d="M58.9919,234.7656 L58.9919,232.6094 L66.3825,232.6094 L66.3825,234.7656 L63.9138,234.7656 L63.9138,242.8438 L66.3825,242.8438 L66.3825,245 L58.9919,245 L58.9919,242.8438 L61.4606,242.8438 L61.4606,234.7656 L58.9919,234.7656 Z " fill="#000000"/><text fill="#000000" font-family="sans-serif" font-size="14" font-style="italic" lengthAdjust="spacing" textLength="95.2451" x="77.07" y="243.8467">SendStrategy</text><line style="stroke:#181818;stroke-width:0.5;" x1="49.07" x2="174.3151" y1="255" y2="255"/><line style="stroke:#181818;stroke-width:0.5;" x1="49.07" x2="174.3151" y1="263" y2="263"/></g><!--class QueueStorageStrategy--><g id="elem_QueueStorageStrategy"><rect codeLine="5" fill="#F1F1F1" height="48" id="QueueStorageStrategy" rx="2.5" ry="2.5" style="stroke:#181818;stroke-width:0.5;" width="192.7539" x="430.32" y="223"/><ellipse cx="445.32" cy="239" fill="#B4A7E5" rx="11" ry="11" style="stroke:#181818;stroke-width:1.0;"/><path d="M441.2419,234.7656 L441.2419,232.6094 L448.6325,232.6094 L448.6325,234.7656 L446.1638,234.7656 L446.1638,242.8438 L448.6325,242.8438 L448.6325,245 L441.2419,245 L441.2419,242.8438 L443.7106,242.8438 L443.7106,234.7656 L441.2419,234.7656 Z " fill="#000000"/><text fill="#000000" font-family="sans-serif" font-size="14" font-style="italic" lengthAdjust="spacing" textLength="160.7539" x="459.32" y="243.8467">QueueStorageStrategy</text><line style="stroke:#181818;stroke-width:0.5;" x1="431.32" x2="622.0739" y1="255" y2="255"/><line style="stroke:#181818;stroke-width:0.5;" x1="431.32" x2="622.0739" y1="263" y2="263"/></g><!--class KafkaProducerService--><g id="elem_KafkaProducerService"><rect fill="#F1F1F1" height="48" id="KafkaProducerService" rx="2.5" ry="2.5" style="stroke:#181818;stroke-width:0.5;" width="185.7061" x="209.84" y="223"/><ellipse cx="224.84" cy="239" fill="#ADD1B2" rx="11" ry="11" style="stroke:#181818;stroke-width:1.0;"/><path d="M227.8088,244.6406 Q227.2306,244.9375 226.59,245.0781 Q225.9494,245.2344 225.2463,245.2344 Q222.7463,245.2344 221.4181,243.5938 Q220.1056,241.9375 220.1056,238.8125 Q220.1056,235.6875 221.4181,234.0313 Q222.7463,232.375 225.2463,232.375 Q225.9494,232.375 226.59,232.5313 Q227.2463,232.6875 227.8088,232.9844 L227.8088,235.7031 Q227.1838,235.125 226.59,234.8594 Q225.9963,234.5781 225.3713,234.5781 Q224.0275,234.5781 223.34,235.6563 Q222.6525,236.7188 222.6525,238.8125 Q222.6525,240.9063 223.34,241.9844 Q224.0275,243.0469 225.3713,243.0469 Q225.9963,243.0469 226.59,242.7813 Q227.1838,242.5 227.8088,241.9219 L227.8088,244.6406 Z " fill="#000000"/><text fill="#000000" font-family="sans-serif" font-size="14" lengthAdjust="spacing" textLength="153.7061" x="238.84" y="243.8467">KafkaProducerService</text><line style="stroke:#181818;stroke-width:0.5;" x1="210.84" x2="394.5461" y1="255" y2="255"/><line style="stroke:#181818;stroke-width:0.5;" x1="210.84" x2="394.5461" y1="263" y2="263"/></g><!--class SimpleSendStrategy--><g id="elem_SimpleSendStrategy"><rect fill="#F1F1F1" height="48" id="SimpleSendStrategy" rx="2.5" ry="2.5" style="stroke:#181818;stroke-width:0.5;" width="175.0488" x="24.17" y="392"/><ellipse cx="39.17" cy="408" fill="#ADD1B2" rx="11" ry="11" style="stroke:#181818;stroke-width:1.0;"/><path d="M42.1388,413.6406 Q41.5606,413.9375 40.92,414.0781 Q40.2794,414.2344 39.5763,414.2344 Q37.0763,414.2344 35.7481,412.5938 Q34.4356,410.9375 34.4356,407.8125 Q34.4356,404.6875 35.7481,403.0313 Q37.0763,401.375 39.5763,401.375 Q40.2794,401.375 40.92,401.5313 Q41.5763,401.6875 42.1388,401.9844 L42.1388,404.7031 Q41.5138,404.125 40.92,403.8594 Q40.3263,403.5781 39.7013,403.5781 Q38.3575,403.5781 37.67,404.6563 Q36.9825,405.7188 36.9825,407.8125 Q36.9825,409.9063 37.67,410.9844 Q38.3575,412.0469 39.7013,412.0469 Q40.3263,412.0469 40.92,411.7813 Q41.5138,411.5 42.1388,410.9219 L42.1388,413.6406 Z " fill="#000000"/><text fill="#000000" font-family="sans-serif" font-size="14" lengthAdjust="spacing" textLength="143.0488" x="53.17" y="412.8467">SimpleSendStrategy</text><line style="stroke:#181818;stroke-width:0.5;" x1="25.17" x2="198.2188" y1="424" y2="424"/><line style="stroke:#181818;stroke-width:0.5;" x1="25.17" x2="198.2188" y1="432" y2="432"/></g><!--class TransactionSendStrategy--><g id="elem_TransactionSendStrategy"><rect fill="#F1F1F1" height="48" id="TransactionSendStrategy" rx="2.5" ry="2.5" style="stroke:#181818;stroke-width:0.5;" width="209.3926" x="7" y="7"/><ellipse cx="22" cy="23" fill="#ADD1B2" rx="11" ry="11" style="stroke:#181818;stroke-width:1.0;"/><path d="M24.9688,28.6406 Q24.3906,28.9375 23.75,29.0781 Q23.1094,29.2344 22.4063,29.2344 Q19.9063,29.2344 18.5781,27.5938 Q17.2656,25.9375 17.2656,22.8125 Q17.2656,19.6875 18.5781,18.0313 Q19.9063,16.375 22.4063,16.375 Q23.1094,16.375 23.75,16.5313 Q24.4063,16.6875 24.9688,16.9844 L24.9688,19.7031 Q24.3438,19.125 23.75,18.8594 Q23.1563,18.5781 22.5313,18.5781 Q21.1875,18.5781 20.5,19.6563 Q19.8125,20.7188 19.8125,22.8125 Q19.8125,24.9063 20.5,25.9844 Q21.1875,27.0469 22.5313,27.0469 Q23.1563,27.0469 23.75,26.7813 Q24.3438,26.5 24.9688,25.9219 L24.9688,28.6406 Z " fill="#000000"/><text fill="#000000" font-family="sans-serif" font-size="14" lengthAdjust="spacing" textLength="177.3926" x="36" y="27.8467">TransactionSendStrategy</text><line style="stroke:#181818;stroke-width:0.5;" x1="8" x2="215.3926" y1="39" y2="39"/><line style="stroke:#181818;stroke-width:0.5;" x1="8" x2="215.3926" y1="47" y2="47"/></g><!--class PersistentQueueStorageStrategy--><g id="elem_PersistentQueueStorageStrategy"><rect fill="#F1F1F1" height="48" id="PersistentQueueStorageStrategy" rx="2.5" ry="2.5" style="stroke:#181818;stroke-width:0.5;" width="262.5078" x="395.44" y="7"/><ellipse cx="410.44" cy="23" fill="#ADD1B2" rx="11" ry="11" style="stroke:#181818;stroke-width:1.0;"/><path d="M413.4088,28.6406 Q412.8306,28.9375 412.19,29.0781 Q411.5494,29.2344 410.8463,29.2344 Q408.3463,29.2344 407.0181,27.5938 Q405.7056,25.9375 405.7056,22.8125 Q405.7056,19.6875 407.0181,18.0313 Q408.3463,16.375 410.8463,16.375 Q411.5494,16.375 412.19,16.5313 Q412.8463,16.6875 413.4088,16.9844 L413.4088,19.7031 Q412.7838,19.125 412.19,18.8594 Q411.5963,18.5781 410.9713,18.5781 Q409.6275,18.5781 408.94,19.6563 Q408.2525,20.7188 408.2525,22.8125 Q408.2525,24.9063 408.94,25.9844 Q409.6275,27.0469 410.9713,27.0469 Q411.5963,27.0469 412.19,26.7813 Q412.7838,26.5 413.4088,25.9219 L413.4088,28.6406 Z " fill="#000000"/><text fill="#000000" font-family="sans-serif" font-size="14" lengthAdjust="spacing" textLength="230.5078" x="424.44" y="27.8467">PersistentQueueStorageStrategy</text><line style="stroke:#181818;stroke-width:0.5;" x1="396.44" x2="656.9478" y1="39" y2="39"/><line style="stroke:#181818;stroke-width:0.5;" x1="396.44" x2="656.9478" y1="47" y2="47"/></g><!--class SimpleQueueStorageStrategy--><g id="elem_SimpleQueueStorageStrategy"><rect fill="#F1F1F1" height="48" id="SimpleQueueStorageStrategy" rx="2.5" ry="2.5" style="stroke:#181818;stroke-width:0.5;" width="240.5576" x="406.42" y="392"/><ellipse cx="421.42" cy="408" fill="#ADD1B2" rx="11" ry="11" style="stroke:#181818;stroke-width:1.0;"/><path d="M424.3888,413.6406 Q423.8106,413.9375 423.17,414.0781 Q422.5294,414.2344 421.8263,414.2344 Q419.3263,414.2344 417.9981,412.5938 Q416.6856,410.9375 416.6856,407.8125 Q416.6856,404.6875 417.9981,403.0313 Q419.3263,401.375 421.8263,401.375 Q422.5294,401.375 423.17,401.5313 Q423.8263,401.6875 424.3888,401.9844 L424.3888,404.7031 Q423.7638,404.125 423.17,403.8594 Q422.5763,403.5781 421.9513,403.5781 Q420.6075,403.5781 419.92,404.6563 Q419.2325,405.7188 419.2325,407.8125 Q419.2325,409.9063 419.92,410.9844 Q420.6075,412.0469 421.9513,412.0469 Q422.5763,412.0469 423.17,411.7813 Q423.7638,411.5 424.3888,410.9219 L424.3888,413.6406 Z " fill="#000000"/><text fill="#000000" font-family="sans-serif" font-size="14" lengthAdjust="spacing" textLength="208.5576" x="435.42" y="412.8467">SimpleQueueStorageStrategy</text><line style="stroke:#181818;stroke-width:0.5;" x1="407.42" x2="645.9776" y1="424" y2="424"/><line style="stroke:#181818;stroke-width:0.5;" x1="407.42" x2="645.9776" y1="432" y2="432"/></g><!--reverse link ProducerService to KafkaProducerService--><g id="link_ProducerService_KafkaProducerService"><path codeLine="7" d="M302.7,181.26 C302.7,198.94 302.7,205.13 302.7,222.79 " fill="none" id="ProducerService-backto-KafkaProducerService" style="stroke:#181818;stroke-width:1.0;stroke-dasharray:7.0,7.0;"/><polygon fill="none" points="302.7,163.26,296.7,181.26,308.7,181.26,302.7,163.26" style="stroke:#181818;stroke-width:1.0;"/></g><!--link SendStrategy to KafkaProducerService--><g id="link_SendStrategy_KafkaProducerService"><path codeLine="8" d="M175.49,247 C186.92,247 186.35,247 197.77,247 " fill="none" id="SendStrategy-to-KafkaProducerService" style="stroke:#181818;stroke-width:1.0;"/><polygon fill="none" points="209.77,247,203.77,243,197.77,247,203.77,251,209.77,247" style="stroke:#181818;stroke-width:1.0;"/></g><!--reverse link KafkaProducerService to QueueStorageStrategy--><g id="link_KafkaProducerService_QueueStorageStrategy"><path codeLine="9" d="M407.88,247 C419.21,247 418.54,247 429.86,247 " fill="none" id="KafkaProducerService-backto-QueueStorageStrategy" style="stroke:#181818;stroke-width:1.0;"/><polygon fill="none" points="395.88,247,401.88,251,407.88,247,401.88,243,395.88,247" style="stroke:#181818;stroke-width:1.0;"/></g><!--reverse link SendStrategy to SimpleSendStrategy--><g id="link_SendStrategy_SimpleSendStrategy"><path codeLine="11" d="M111.7,289.22 C111.7,321.04 111.7,359.85 111.7,391.71 " fill="none" id="SendStrategy-backto-SimpleSendStrategy" style="stroke:#181818;stroke-width:1.0;stroke-dasharray:7.0,7.0;"/><polygon fill="none" points="111.7,271.22,105.7,289.22,117.7,289.22,111.7,271.22" style="stroke:#181818;stroke-width:1.0;"/></g><!--link TransactionSendStrategy to SendStrategy--><g id="link_TransactionSendStrategy_SendStrategy"><path codeLine="12" d="M111.7,55.31 C111.7,96.47 111.7,163.58 111.7,204.72 " fill="none" id="TransactionSendStrategy-to-SendStrategy" style="stroke:#181818;stroke-width:1.0;stroke-dasharray:7.0,7.0;"/><polygon fill="none" points="111.7,222.72,117.7,204.72,105.7,204.72,111.7,222.72" style="stroke:#181818;stroke-width:1.0;"/></g><!--link PersistentQueueStorageStrategy to QueueStorageStrategy--><g id="link_PersistentQueueStorageStrategy_QueueStorageStrategy"><path codeLine="14" d="M526.7,55.31 C526.7,96.47 526.7,163.58 526.7,204.72 " fill="none" id="PersistentQueueStorageStrategy-to-QueueStorageStrategy" style="stroke:#181818;stroke-width:1.0;stroke-dasharray:7.0,7.0;"/><polygon fill="none" points="526.7,222.72,532.7,204.72,520.7,204.72,526.7,222.72" style="stroke:#181818;stroke-width:1.0;"/></g><!--reverse link QueueStorageStrategy to SimpleQueueStorageStrategy--><g id="link_QueueStorageStrategy_SimpleQueueStorageStrategy"><path codeLine="15" d="M526.7,289.22 C526.7,321.04 526.7,359.85 526.7,391.71 " fill="none" id="QueueStorageStrategy-backto-SimpleQueueStorageStrategy" style="stroke:#181818;stroke-width:1.0;stroke-dasharray:7.0,7.0;"/><polygon fill="none" points="526.7,271.22,520.7,289.22,532.7,289.22,526.7,271.22" style="stroke:#181818;stroke-width:1.0;"/></g><!--SRC=[TO_H3SCW34J_cO85o0JTe3-fw08MCSHAOY83hIfr-4RzY4XAV- -Uxyvf8bv1OD5fX24-YOFsC2TKYZYZU72eUub3SIWMvK4EAySY3pOBP0olIhuLB6Xp50Yus-eKeo_lhjDNy1ES2rgYZiRCwBCvblv3XSAuiUqbTS9tnlOvRy6qh3CUud_8iXfz5-04BbFa0wnQRVjLZv8ePUJS7FNtjjxMWZu0]--></g></svg>