<svg xmlns="http://www.w3.org/2000/svg" xmlns:xlink="http://www.w3.org/1999/xlink" contentStyleType="text/css" height="383px" preserveAspectRatio="none" style="width:421px;height:383px;background:#FFFFFF;" version="1.1" viewBox="0 0 421 383" width="421px" zoomAndPan="magnify"><defs/><g><!--cluster KafkaCluster--><g id="cluster_KafkaCluster"><path d="M93.6289,264.59 C93.6289,254.59 195.6289,254.59 195.6289,254.59 C195.6289,254.59 297.6289,254.59 297.6289,264.59 L297.6289,356.89 C297.6289,366.89 195.6289,366.89 195.6289,366.89 C195.6289,366.89 93.6289,366.89 93.6289,356.89 L93.6289,264.59 " fill="none" style="stroke:#181818;stroke-width:1.0;"/><path d="M93.6289,264.59 C93.6289,274.59 195.6289,274.59 195.6289,274.59 C195.6289,274.59 297.6289,274.59 297.6289,264.59 " fill="none" style="stroke:#181818;stroke-width:1.0;"/><text fill="#000000" font-family="sans-serif" font-size="14" font-weight="bold" lengthAdjust="spacing" textLength="101.6094" x="144.8242" y="289.5851">KafkaCluster</text></g><!--entity ConfigurationTopic--><g id="elem_ConfigurationTopic"><rect fill="#F1F1F1" height="46.2969" rx="2.5" ry="2.5" style="stroke:#181818;stroke-width:0.5;" width="172.5352" x="109.3589" y="304.59"/><rect fill="#F1F1F1" height="10" style="stroke:#181818;stroke-width:0.5;" width="15" x="261.8941" y="309.59"/><rect fill="#F1F1F1" height="2" style="stroke:#181818;stroke-width:0.5;" width="4" x="259.8941" y="311.59"/><rect fill="#F1F1F1" height="2" style="stroke:#181818;stroke-width:0.5;" width="4" x="259.8941" y="315.59"/><text fill="#000000" font-family="sans-serif" font-size="14" lengthAdjust="spacing" textLength="132.5352" x="124.3589" y="337.5851">ConfigurationTopic</text></g><!--entity IConsumerService--><g id="elem_IConsumerService"><ellipse cx="69.6289" cy="168.44" fill="#F1F1F1" rx="8" ry="8" style="stroke:#181818;stroke-width:0.5;"/><text fill="#000000" font-family="sans-serif" font-size="14" lengthAdjust="spacing" textLength="127.2578" x="6" y="198.4351">IConsumerService</text></g><!--entity IConfigurationService--><g id="elem_IConfigurationService"><ellipse cx="100.6289" cy="30.15" fill="#F1F1F1" rx="8" ry="8" style="stroke:#181818;stroke-width:0.5;"/><text fill="#000000" font-family="sans-serif" font-size="14" lengthAdjust="spacing" textLength="150.8145" x="25.2217" y="60.1451">IConfigurationService</text></g><!--entity ConsumerService--><g id="elem_ConsumerService"><rect fill="#F1F1F1" height="46.2969" rx="2.5" ry="2.5" style="stroke:#181818;stroke-width:0.5;" width="163.1289" x="114.0689" y="145.3"/><rect fill="#F1F1F1" height="10" style="stroke:#181818;stroke-width:0.5;" width="15" x="257.1978" y="150.3"/><rect fill="#F1F1F1" height="2" style="stroke:#181818;stroke-width:0.5;" width="4" x="255.1978" y="152.3"/><rect fill="#F1F1F1" height="2" style="stroke:#181818;stroke-width:0.5;" width="4" x="255.1978" y="156.3"/><text fill="#000000" font-family="sans-serif" font-size="14" lengthAdjust="spacing" textLength="123.1289" x="129.0689" y="178.2951">ConsumerService</text></g><!--entity KafkaConfigurationService--><g id="elem_KafkaConfigurationService"><rect fill="#F1F1F1" height="46.2969" rx="2.5" ry="2.5" style="stroke:#181818;stroke-width:0.5;" width="226.0605" x="144.5989" y="7"/><rect fill="#F1F1F1" height="10" style="stroke:#181818;stroke-width:0.5;" width="15" x="350.6595" y="12"/><rect fill="#F1F1F1" height="2" style="stroke:#181818;stroke-width:0.5;" width="4" x="348.6595" y="14"/><rect fill="#F1F1F1" height="2" style="stroke:#181818;stroke-width:0.5;" width="4" x="348.6595" y="18"/><text fill="#000000" font-family="sans-serif" font-size="14" lengthAdjust="spacing" textLength="186.0605" x="159.5989" y="39.9951">KafkaConfigurationService</text></g><!--entity Listeners--><g id="elem_Listeners"><rect fill="#F1F1F1" height="46.2969" rx="2.5" ry="2.5" style="stroke:#181818;stroke-width:0.5;" width="103.6221" x="311.8189" y="145.3"/><rect fill="#F1F1F1" height="10" style="stroke:#181818;stroke-width:0.5;" width="15" x="395.441" y="150.3"/><rect fill="#F1F1F1" height="2" style="stroke:#181818;stroke-width:0.5;" width="4" x="393.441" y="152.3"/><rect fill="#F1F1F1" height="2" style="stroke:#181818;stroke-width:0.5;" width="4" x="393.441" y="156.3"/><text fill="#000000" font-family="sans-serif" font-size="14" lengthAdjust="spacing" textLength="63.6221" x="326.8189" y="178.2951">Listeners</text></g><!--link IConsumerService to ConsumerService--><g id="link_IConsumerService_ConsumerService"><path d="M78.9789,168.44 C90.5189,168.44 102.0689,168.44 113.6089,168.44 " fill="none" id="IConsumerService-ConsumerService" style="stroke:#181818;stroke-width:1.0;"/></g><!--link IConfigurationService to KafkaConfigurationService--><g id="link_IConfigurationService_KafkaConfigurationService"><path d="M109.8289,30.15 C121.2789,30.15 132.7289,30.15 144.1789,30.15 " fill="none" id="IConfigurationService-KafkaConfigurationService" style="stroke:#181818;stroke-width:1.0;"/></g><!--link KafkaConfigurationService to IConsumerService--><g id="link_KafkaConfigurationService_IConsumerService"><path d="M224.4589,53.66 C191.5589,76.22 139.9389,112.24 96.6289,145.3 C90.6489,149.86 88.7316,151.351 83.6016,155.641 " fill="none" id="KafkaConfigurationService-to-IConsumerService" style="stroke:#181818;stroke-width:1.0;stroke-dasharray:7.0,7.0;"/><polygon fill="#181818" points="78.9989,159.49,88.469,156.7849,82.8345,156.2825,83.3369,150.648,78.9989,159.49" style="stroke:#181818;stroke-width:1.0;"/><text fill="#000000" font-family="sans-serif" font-size="13" lengthAdjust="spacing" textLength="50.8638" x="198.3135" y="96.3669">monitor</text><text fill="#000000" font-family="sans-serif" font-size="13" lengthAdjust="spacing" textLength="86.2329" x="180.6289" y="111.4997">configuration</text></g><!--link KafkaConfigurationService to Listeners--><g id="link_KafkaConfigurationService_Listeners"><path d="M275.1289,53.65 C294.7689,78.91 322.7649,114.9042 342.4149,140.1642 " fill="none" id="KafkaConfigurationService-to-Listeners" style="stroke:#181818;stroke-width:1.0;stroke-dasharray:7.0,7.0;"/><polygon fill="#181818" points="346.0989,144.9,343.7301,135.3403,343.0289,140.9535,337.4156,140.2523,346.0989,144.9" style="stroke:#181818;stroke-width:1.0;"/><text fill="#000000" font-family="sans-serif" font-size="13" lengthAdjust="spacing" textLength="37.1719" x="320.6289" y="103.8669">notify</text></g><!--link ConsumerService to ConfigurationTopic--><g id="link_ConsumerService_ConfigurationTopic"><path d="M195.6289,191.98 C195.6289,221.88 195.6289,268.37 195.6289,298.25 " fill="none" id="ConsumerService-to-ConfigurationTopic" style="stroke:#181818;stroke-width:1.0;stroke-dasharray:7.0,7.0;"/><polygon fill="#181818" points="195.6289,304.25,199.6289,295.25,195.6289,299.25,191.6289,295.25,195.6289,304.25" style="stroke:#181818;stroke-width:1.0;"/><text fill="#000000" font-family="sans-serif" font-size="13" lengthAdjust="spacing" textLength="56.8433" x="196.6289" y="234.6569">poll data</text></g><!--SRC=[XO-n3e9044Jx_OejjP0FiB2nCjffXrUiS8SRO8_S7HfZ_7UF4185eblElfdC-9Ab8KSr-YlbzivIeA7AQu354dTRAxwjjJjgT-DC3vhXedKKsChmW36AAqn7ae9PRqVkoPGqzrG0EGMwaDVOGrNhWtRu18oNVdbEjk5CmGi0VYHYacmcot2DjHKErfqb-tJzJKeF70k9Tbx54B61pGCcqtjqfctqDBQgi5lv1W00]--></g></svg>