<svg xmlns="http://www.w3.org/2000/svg" xmlns:xlink="http://www.w3.org/1999/xlink" contentStyleType="text/css" height="368px" preserveAspectRatio="none" style="width:398px;height:368px;background:#FFFFFF;" version="1.1" viewBox="0 0 398 368" width="398px" zoomAndPan="magnify"><defs/><g><!--cluster KafkaCluster--><g id="cluster_KafkaCluster"><path d="M251.81,249.59 C251.81,239.59 310.81,239.59 310.81,239.59 C310.81,239.59 369.81,239.59 369.81,249.59 L369.81,341.89 C369.81,351.89 310.81,351.89 310.81,351.89 C310.81,351.89 251.81,351.89 251.81,341.89 L251.81,249.59 " fill="none" style="stroke:#181818;stroke-width:1.0;"/><path d="M251.81,249.59 C251.81,259.59 310.81,259.59 310.81,259.59 C310.81,259.59 369.81,259.59 369.81,249.59 " fill="none" style="stroke:#181818;stroke-width:1.0;"/><text fill="#000000" font-family="sans-serif" font-size="14" font-weight="bold" lengthAdjust="spacing" textLength="101.6094" x="260.0053" y="274.5851">KafkaCluster</text></g><!--entity Broker--><g id="elem_Broker"><rect fill="#F1F1F1" height="46.2969" rx="2.5" ry="2.5" style="stroke:#181818;stroke-width:0.5;" width="86.4023" x="267.61" y="289.59"/><rect fill="#F1F1F1" height="10" style="stroke:#181818;stroke-width:0.5;" width="15" x="334.0123" y="294.59"/><rect fill="#F1F1F1" height="2" style="stroke:#181818;stroke-width:0.5;" width="4" x="332.0123" y="296.59"/><rect fill="#F1F1F1" height="2" style="stroke:#181818;stroke-width:0.5;" width="4" x="332.0123" y="300.59"/><text fill="#000000" font-family="sans-serif" font-size="14" lengthAdjust="spacing" textLength="46.4023" x="282.61" y="322.5851">Broker</text></g><!--entity IConsumerService--><g id="elem_IConsumerService"><ellipse cx="184.81" cy="30.15" fill="#F1F1F1" rx="8" ry="8" style="stroke:#181818;stroke-width:0.5;"/><text fill="#000000" font-family="sans-serif" font-size="14" lengthAdjust="spacing" textLength="127.2578" x="121.1811" y="60.1451">IConsumerService</text></g><!--entity ConsumerService--><g id="elem_ConsumerService"><rect fill="#F1F1F1" height="46.2969" rx="2.5" ry="2.5" style="stroke:#181818;stroke-width:0.5;" width="163.1289" x="229.25" y="7"/><rect fill="#F1F1F1" height="10" style="stroke:#181818;stroke-width:0.5;" width="15" x="372.3789" y="12"/><rect fill="#F1F1F1" height="2" style="stroke:#181818;stroke-width:0.5;" width="4" x="370.3789" y="14"/><rect fill="#F1F1F1" height="2" style="stroke:#181818;stroke-width:0.5;" width="4" x="370.3789" y="18"/><text fill="#000000" font-family="sans-serif" font-size="14" lengthAdjust="spacing" textLength="123.1289" x="244.25" y="39.9951">ConsumerService</text></g><!--entity PollThreads--><g id="elem_PollThreads"><rect fill="#F1F1F1" height="46.2969" rx="2.5" ry="2.5" style="stroke:#181818;stroke-width:0.5;" width="121.3408" x="250.14" y="130.3"/><rect fill="#F1F1F1" height="10" style="stroke:#181818;stroke-width:0.5;" width="15" x="351.4808" y="135.3"/><rect fill="#F1F1F1" height="2" style="stroke:#181818;stroke-width:0.5;" width="4" x="349.4808" y="137.3"/><rect fill="#F1F1F1" height="2" style="stroke:#181818;stroke-width:0.5;" width="4" x="349.4808" y="141.3"/><text fill="#000000" font-family="sans-serif" font-size="14" lengthAdjust="spacing" textLength="81.3408" x="265.14" y="163.2951">PollThreads</text></g><!--entity Listeners--><g id="elem_Listeners"><rect fill="#F1F1F1" height="46.2969" rx="2.5" ry="2.5" style="stroke:#181818;stroke-width:0.5;" width="103.6221" x="7" y="130.3"/><rect fill="#F1F1F1" height="10" style="stroke:#181818;stroke-width:0.5;" width="15" x="90.6221" y="135.3"/><rect fill="#F1F1F1" height="2" style="stroke:#181818;stroke-width:0.5;" width="4" x="88.6221" y="137.3"/><rect fill="#F1F1F1" height="2" style="stroke:#181818;stroke-width:0.5;" width="4" x="88.6221" y="141.3"/><text fill="#000000" font-family="sans-serif" font-size="14" lengthAdjust="spacing" textLength="63.6221" x="22" y="163.2951">Listeners</text></g><!--link IConsumerService to ConsumerService--><g id="link_IConsumerService_ConsumerService"><path d="M194.16,30.15 C205.71,30.15 217.25,30.15 228.79,30.15 " fill="none" id="IConsumerService-ConsumerService" style="stroke:#181818;stroke-width:1.0;"/></g><!--link ConsumerService to PollThreads--><g id="link_ConsumerService_PollThreads"><path d="M310.81,53.68 C310.81,75.47 310.81,102.29 310.81,124.03 " fill="none" id="ConsumerService-to-PollThreads" style="stroke:#181818;stroke-width:1.0;stroke-dasharray:7.0,7.0;"/><polygon fill="#181818" points="310.81,130.03,314.81,121.03,310.81,125.03,306.81,121.03,310.81,130.03" style="stroke:#181818;stroke-width:1.0;"/><text fill="#000000" font-family="sans-serif" font-size="13" lengthAdjust="spacing" textLength="62.7339" x="311.81" y="96.3669">start/stop</text></g><!--reverse link Listeners to PollThreads--><g id="link_Listeners_PollThreads"><path d="M117.03,153.44 C157.39,153.44 207.36,153.44 249.79,153.44 " fill="none" id="Listeners-backto-PollThreads" style="stroke:#181818;stroke-width:1.0;stroke-dasharray:7.0,7.0;"/><polygon fill="#181818" points="111.03,153.44,120.03,157.44,116.03,153.44,120.03,149.44,111.03,153.44" style="stroke:#181818;stroke-width:1.0;"/><text fill="#000000" font-family="sans-serif" font-size="13" lengthAdjust="spacing" textLength="103.1875" x="128.88" y="146.5069">process records</text></g><!--link PollThreads to Broker--><g id="link_PollThreads_Broker"><path d="M310.81,176.98 C310.81,206.88 310.81,253.37 310.81,283.25 " fill="none" id="PollThreads-to-Broker" style="stroke:#181818;stroke-width:1.0;stroke-dasharray:7.0,7.0;"/><polygon fill="#181818" points="310.81,289.25,314.81,280.25,310.81,284.25,306.81,280.25,310.81,289.25" style="stroke:#181818;stroke-width:1.0;"/><text fill="#000000" font-family="sans-serif" font-size="13" lengthAdjust="spacing" textLength="76.375" x="311.81" y="219.6569">poll records</text></g><!--SRC=[POmn3u9034Rt_egEEe2xWuDCHWSJtGX3vOfSEEv8U-XW_E-UH0UnutjVdtRM3oJKexPamjtwApRab04MIzmLmUlOivnORhPES4ummtA6AlWZcESRB8_1kNChJ4OhNAD6ahZI60RuLPdZ9auV1wkHFSkq7oJKh8h2TH2Z08OYNKWPzzHqLBWnZGKVWEdAhOIEfO8dpEfJ-6FVrUI-oHS0]--></g></svg>