<svg xmlns="http://www.w3.org/2000/svg" xmlns:xlink="http://www.w3.org/1999/xlink" contentStyleType="text/css" height="476px" preserveAspectRatio="none" style="width:326px;height:476px;background:#FFFFFF;" version="1.1" viewBox="0 0 326 476" width="326px" zoomAndPan="magnify"><defs/><g><!--cluster KafkaCluster--><g id="cluster_KafkaCluster"><path d="M10.23,249.6 C10.23,239.6 69.23,239.6 69.23,239.6 C69.23,239.6 128.23,239.6 128.23,249.6 L128.23,341.89 C128.23,351.89 69.23,351.89 69.23,351.89 C69.23,351.89 10.23,351.89 10.23,341.89 L10.23,249.6 " fill="none" style="stroke:#181818;stroke-width:1.0;"/><path d="M10.23,249.6 C10.23,259.6 69.23,259.6 69.23,259.6 C69.23,259.6 128.23,259.6 128.23,249.6 " fill="none" style="stroke:#181818;stroke-width:1.0;"/><text fill="#000000" font-family="sans-serif" font-size="14" font-weight="bold" lengthAdjust="spacing" textLength="101.6094" x="18.4253" y="274.5951">KafkaCluster</text></g><!--entity Broker--><g id="elem_Broker"><rect fill="#F1F1F1" height="46.2969" rx="2.5" ry="2.5" style="stroke:#181818;stroke-width:0.5;" width="86.4023" x="26.03" y="289.6"/><rect fill="#F1F1F1" height="10" style="stroke:#181818;stroke-width:0.5;" width="15" x="92.4323" y="294.6"/><rect fill="#F1F1F1" height="2" style="stroke:#181818;stroke-width:0.5;" width="4" x="90.4323" y="296.6"/><rect fill="#F1F1F1" height="2" style="stroke:#181818;stroke-width:0.5;" width="4" x="90.4323" y="300.6"/><text fill="#000000" font-family="sans-serif" font-size="14" lengthAdjust="spacing" textLength="46.4023" x="41.03" y="322.5951">Broker</text></g><!--entity IProducerService--><g id="elem_IProducerService"><ellipse cx="65.23" cy="30.15" fill="#F1F1F1" rx="8" ry="8" style="stroke:#181818;stroke-width:0.5;"/><text fill="#000000" font-family="sans-serif" font-size="14" lengthAdjust="spacing" textLength="118.46" x="6" y="60.1451">IProducerService</text></g><!--entity IRecordsDataAccess--><g id="elem_IRecordsDataAccess"><ellipse cx="231.23" cy="438.04" fill="#F1F1F1" rx="8" ry="8" style="stroke:#181818;stroke-width:0.5;"/><text fill="#000000" font-family="sans-serif" font-size="14" lengthAdjust="spacing" textLength="142.2695" x="160.0952" y="468.0351">IRecordsDataAccess</text></g><!--entity ProducerService--><g id="elem_ProducerService"><rect fill="#F1F1F1" height="46.2969" rx="2.5" ry="2.5" style="stroke:#181818;stroke-width:0.5;" width="154.3311" x="109.06" y="7"/><rect fill="#F1F1F1" height="10" style="stroke:#181818;stroke-width:0.5;" width="15" x="243.391" y="12"/><rect fill="#F1F1F1" height="2" style="stroke:#181818;stroke-width:0.5;" width="4" x="241.391" y="14"/><rect fill="#F1F1F1" height="2" style="stroke:#181818;stroke-width:0.5;" width="4" x="241.391" y="18"/><text fill="#000000" font-family="sans-serif" font-size="14" lengthAdjust="spacing" textLength="114.3311" x="124.06" y="39.9951">ProducerService</text></g><!--entity RocksDb--><g id="elem_RocksDb"><rect fill="#F1F1F1" height="46.2969" rx="2.5" ry="2.5" style="stroke:#181818;stroke-width:0.5;" width="101.0586" x="85.7" y="414.89"/><rect fill="#F1F1F1" height="10" style="stroke:#181818;stroke-width:0.5;" width="15" x="166.7586" y="419.89"/><rect fill="#F1F1F1" height="2" style="stroke:#181818;stroke-width:0.5;" width="4" x="164.7586" y="421.89"/><rect fill="#F1F1F1" height="2" style="stroke:#181818;stroke-width:0.5;" width="4" x="164.7586" y="425.89"/><text fill="#000000" font-family="sans-serif" font-size="14" lengthAdjust="spacing" textLength="61.0586" x="100.7" y="447.8851">RocksDb</text></g><!--entity SendThread--><g id="elem_SendThread"><rect fill="#F1F1F1" height="46.2969" rx="2.5" ry="2.5" style="stroke:#181818;stroke-width:0.5;" width="124.5195" x="46.97" y="130.3"/><rect fill="#F1F1F1" height="10" style="stroke:#181818;stroke-width:0.5;" width="15" x="151.4895" y="135.3"/><rect fill="#F1F1F1" height="2" style="stroke:#181818;stroke-width:0.5;" width="4" x="149.4895" y="137.3"/><rect fill="#F1F1F1" height="2" style="stroke:#181818;stroke-width:0.5;" width="4" x="149.4895" y="141.3"/><text fill="#000000" font-family="sans-serif" font-size="14" lengthAdjust="spacing" textLength="84.5195" x="61.97" y="163.2951">SendThread</text></g><!--entity MessageQueue--><g id="elem_MessageQueue"><rect fill="#F1F1F1" height="46.2969" rx="2.5" ry="2.5" style="stroke:#181818;stroke-width:0.5;" width="147.3516" x="157.55" y="289.6"/><rect fill="#F1F1F1" height="10" style="stroke:#181818;stroke-width:0.5;" width="15" x="284.9015" y="294.6"/><rect fill="#F1F1F1" height="2" style="stroke:#181818;stroke-width:0.5;" width="4" x="282.9015" y="296.6"/><rect fill="#F1F1F1" height="2" style="stroke:#181818;stroke-width:0.5;" width="4" x="282.9015" y="300.6"/><text fill="#000000" font-family="sans-serif" font-size="14" lengthAdjust="spacing" textLength="107.3516" x="172.55" y="322.5951">MessageQueue</text></g><!--link IProducerService to ProducerService--><g id="link_IProducerService_ProducerService"><path d="M74.68,30.15 C86.01,30.15 97.34,30.15 108.67,30.15 " fill="none" id="IProducerService-ProducerService" style="stroke:#181818;stroke-width:1.0;"/></g><!--link RocksDb to IRecordsDataAccess--><g id="link_RocksDb_IRecordsDataAccess"><path d="M187.07,438.04 C198.68,438.04 210.3,438.04 221.91,438.04 " fill="none" id="RocksDb-IRecordsDataAccess" style="stroke:#181818;stroke-width:1.0;"/></g><!--link ProducerService to SendThread--><g id="link_ProducerService_SendThread"><path d="M170.85,53.59 C164.66,62.74 157.51,73.47 151.23,83.3 C141.4,98.69 133.8003,111.131 125.6703,124.721 " fill="none" id="ProducerService-to-SendThread" style="stroke:#181818;stroke-width:1.0;stroke-dasharray:7.0,7.0;"/><polygon fill="#181818" points="122.59,129.87,130.6431,124.2001,125.1569,125.5792,123.7778,120.093,122.59,129.87" style="stroke:#181818;stroke-width:1.0;"/><text fill="#000000" font-family="sans-serif" font-size="13" lengthAdjust="spacing" textLength="62.7339" x="152.23" y="96.3669">start/stop</text></g><!--link ProducerService to MessageQueue--><g id="link_ProducerService_MessageQueue"><path d="M204.09,53.76 C210,62.49 215.91,72.89 219.23,83.3 C242.31,155.77 238.133,241.6755 234.273,283.3755 " fill="none" id="ProducerService-to-MessageQueue" style="stroke:#181818;stroke-width:1.0;stroke-dasharray:7.0,7.0;"/><polygon fill="#181818" points="233.72,289.35,238.5325,280.757,234.1808,284.3713,230.5666,280.0196,233.72,289.35" style="stroke:#181818;stroke-width:1.0;"/><text fill="#000000" font-family="sans-serif" font-size="13" lengthAdjust="spacing" textLength="77.416" x="236.23" y="158.0169">add records</text></g><!--link MessageQueue to IRecordsDataAccess--><g id="link_MessageQueue_IRecordsDataAccess"><path d="M231.23,336.36 C231.23,364.17 231.23,403.98 231.23,422.69 " fill="none" id="MessageQueue-to-IRecordsDataAccess" style="stroke:#181818;stroke-width:1.0;stroke-dasharray:7.0,7.0;"/><polygon fill="#181818" points="231.23,428.69,235.23,419.69,231.23,423.69,227.23,419.69,231.23,428.69" style="stroke:#181818;stroke-width:1.0;"/><text fill="#000000" font-family="sans-serif" font-size="13" lengthAdjust="spacing" textLength="86.1123" x="232.23" y="380.9569">store records</text></g><!--link SendThread to MessageQueue--><g id="link_SendThread_MessageQueue"><path d="M116.35,176.79 C121.46,190.93 129.21,209.2 139.23,223.6 C156.8,248.83 177.8064,268.802 197.5464,285.302 " fill="none" id="SendThread-to-MessageQueue" style="stroke:#181818;stroke-width:1.0;stroke-dasharray:7.0,7.0;"/><polygon fill="#181818" points="202.15,289.15,197.8099,280.309,198.3137,285.9433,192.6793,286.4471,202.15,289.15" style="stroke:#181818;stroke-width:1.0;"/><text fill="#000000" font-family="sans-serif" font-size="13" lengthAdjust="spacing" textLength="74.293" x="140.23" y="219.6669">get records</text></g><!--link SendThread to Broker--><g id="link_SendThread_Broker"><path d="M84.98,176.89 C77.48,185.39 70.16,195.66 66.23,206.6 C56.48,233.75 58.8145,261.5408 62.8645,283.3508 " fill="none" id="SendThread-to-Broker" style="stroke:#181818;stroke-width:1.0;stroke-dasharray:7.0,7.0;"/><polygon fill="#181818" points="63.96,289.25,66.2496,279.671,63.0471,284.334,58.384,281.1316,63.96,289.25" style="stroke:#181818;stroke-width:1.0;"/><text fill="#000000" font-family="sans-serif" font-size="13" lengthAdjust="spacing" textLength="31.2622" x="67.23" y="219.6669">send</text></g><!--SRC=[ROwzJiD048JxVOejeN3eAP20D0WXGK9dkTZSZNzauujspwI8ykwv0mJ8yPOxyysCzTsu5vKFjbPyE7HZmxKC1gAhQtvwrU0d1zr2Fpk7hzy6BgYtjKIvTmvcH7CV5zerRImABcTAHPSy5mFgcBoRu7fRxogY2unNgpikjnZzUwiGN_4jMnIDDnR3Vj6VWPSKBmtU9ap8Y7ZF-jrFCp7x5xRbcg3ue_vlMEX8G8FuQoUVedPYu6UfUtaS9ejGFXAdAnyqzD2AJhIG-oFc1Kaw0m00]--></g></svg>